<?xml version="1.0" standalone="no"?>
<!DOCTYPE svg PUBLIC "-//W3C//DTD SVG 1.1//EN" "http://www.w3.org/Graphics/SVG/1.1/DTD/svg11.dtd">
<svg xmlns="http://www.w3.org/2000/svg">
<defs >
<font id="Karla" horiz-adv-x="541" ><font-face
    font-family="Karla"
    units-per-em="1000"
    panose-1="0 0 0 0 0 0 0 0 0 0"
    ascent="917"
    descent="-252"
    alphabetic="0" />
<glyph unicode=" " glyph-name="space" horiz-adv-x="253" />
<glyph unicode="!" glyph-name="exclam" horiz-adv-x="293" d="M86 664H214L200 219H99L86 664ZM114 -9T91 13T68 69T91 126T150 149Q186 149 210 126T234 69T210 13T150 -9Q114 -9 91 13Z" />
<glyph unicode="&quot;" glyph-name="quotedbl" horiz-adv-x="383" d="M150 686L134 448H47L32 686H150ZM351 686L335 448H248L233 686H351Z" />
<glyph unicode="#" glyph-name="numbersign" horiz-adv-x="678" d="M396 164H260L246 33H135L149 164H57L64 241H157L174 399H81L89 477H182L196 606H307L293 477H429L443 606H554L540 477H634L625 399H532L515 241H609L601 164H507L493 33H382L396 164ZM268 241H404L421
399H285L268 241Z" />
<glyph unicode="$" glyph-name="dollar" horiz-adv-x="689" d="M475 343Q550 317 587 278T624 173Q624 102 566 50Q502 -5 387 -13V-101H303V-11Q199 -1 134 51Q65 107 65 203H182Q182 155 213 130T303 98V292L253 309Q169 337 123 376T77 487T134 605T303 661V737H387V660Q484
650 535 600T600 470H483Q478 500 454 523T387 556V374L475 343ZM441 101T466 123T491 175Q491 232 419 259L387 271V96Q441 101 466 123ZM255 553T231 532T206 483T222 439T273 410L303 398V559Q255 553 231 532Z" />
<glyph unicode="%" glyph-name="percent" horiz-adv-x="765" d="M198 662Q225 662 250 653T294 624Q335 585 335 511Q335 438 294 397Q256 359 197 359Q140 359 102 397Q61 438 61 511Q61 585 102 624Q141 662 198 662ZM246 511Q246 587 197 587Q149 587 149 511Q149
434 197 434Q246 434 246 511ZM546 649H665L226 0H106L546 649ZM573 290Q630 290 669 252Q710 213 710 139Q710 65 669 24Q631 -14 573 -14Q515 -14 477 24Q436 65 436 139Q436 213 477 252Q516 290 573 290ZM573 215Q525 215 525 139T573 62Q594 62 608 79T622
138T608 197T573 215Z" />
<glyph unicode="&amp;" glyph-name="ampersand" horiz-adv-x="965" d="M764 344Q720 219 654 137L671 122Q689 106 705 98T744 90T785 107T804 164H911Q909 82 871 34T756 -14Q708 -14 668 5T582 65Q482 -14 360 -14Q248 -14 170 43Q92 101 92 185Q92 315 275
344L259 359Q187 424 187 502Q187 571 244 614Q305 660 406 660Q503 660 564 614Q620 571 620 506T579 397T452 320L579 205Q640 278 684 388L764 344ZM342 284Q222 267 222 192Q222 150 258 122T361 93Q437 93 504 137L342 284ZM441 402T465 428T490 486T467 538T403
558T340 537T317 485Q317 441 364 400L387 379Q441 402 465 428Z" />
<glyph unicode="&apos;" glyph-name="quotesingle" horiz-adv-x="180" d="M149 677L133 439H46L31 677H149Z" />
<glyph unicode="(" glyph-name="parenleft" horiz-adv-x="400" d="M282 -118Q73 68 73 318Q73 570 282 754L367 692Q281 602 238 512T195 318Q195 215 238 126T367 -54L282 -118Z" />
<glyph unicode=")" glyph-name="parenright" horiz-adv-x="400" d="M118 754Q327 568 327 318Q327 70 118 -118L32 -54Q119 36 162 125T205 318Q205 421 162 511T32 692L118 754Z" />
<glyph unicode="*" glyph-name="asterisk" horiz-adv-x="409" d="M161 528L50 565L80 635L179 585L167 704H247L235 585L334 637L364 566L255 529L341 447L282 396L208 497L132 396L75 447L161 528Z" />
<glyph unicode="+" glyph-name="plus" horiz-adv-x="544" d="M331 491V297H526V194H331V0H213V194H18V297H213V491H331Z" />
<glyph unicode="," glyph-name="comma" horiz-adv-x="253" d="M88 0T69 17T49 64T72 115T135 136T200 105T225 29Q225 -44 159 -104Q138 -123 112 -136L24 -92Q57 -75 82 -54T116 -5Q88 0 69 17Z" />
<glyph unicode="-" glyph-name="hyphen" horiz-adv-x="373" d="M46 353H327V250H46V353Z" />
<glyph unicode="." glyph-name="period" horiz-adv-x="215" d="M70 -9T47 13T24 69T47 126T106 149Q142 149 166 126T190 69T166 13T106 -9Q70 -9 47 13Z" />
<glyph unicode="/" glyph-name="slash" horiz-adv-x="472" d="M310 745H431L173 -81H53L310 745Z" />
<glyph unicode="0" glyph-name="zero" horiz-adv-x="633" d="M316 662Q376 662 425 642T510 579Q586 490 586 324Q586 158 510 69Q440 -14 317 -14Q193 -14 122 69Q47 156 47 324Q47 492 122 579Q193 662 316 662ZM464 436T426 495T317 555T208 496T169 324Q169
212 207 154T316 95T425 153T464 324Q464 436 426 495Z" />
<glyph unicode="1" glyph-name="one" horiz-adv-x="357" d="M42 600Q117 611 174 653H263V0H145V512Q94 487 42 487V600Z" />
<glyph unicode="2" glyph-name="two" horiz-adv-x="605" d="M178 108H549V0H60V111Q60 228 143 281Q171 299 208 313L341 364Q385 381 405 406T426 470Q426 508 399 533T322 559T240 535T202 464H71Q73 559 144 613Q209 662 319 662Q420 662 486 608Q553 552 553
471T513 342T387 260L252 208Q213 193 196 175T178 127V108Z" />
<glyph unicode="3" glyph-name="three" horiz-adv-x="622" d="M309 555Q200 555 182 472H58Q68 568 136 617Q200 662 304 662Q411 662 478 612Q548 561 548 481Q548 431 521 395T441 340Q500 320 535 281T571 190T553 103T500 41Q428 -14 313 -14Q203 -14 128
42Q44 103 44 204H170Q173 153 211 124T312 95T408 122T443 192T412 259T312 283H226V376H300Q357 376 389 400T421 465T394 530T309 555Z" />
<glyph unicode="4" glyph-name="four" horiz-adv-x="595" d="M468 656V245H581V144H468V0H351V144H22V233L354 656H468ZM162 233H357V481L162 233Z" />
<glyph unicode="5" glyph-name="five" horiz-adv-x="582" d="M219 395Q273 404 322 404Q423 404 483 356T543 216Q543 117 476 53Q405 -14 297 -14Q190 -14 126 40Q59 96 57 194H178Q178 143 212 119T299 95T386 129T421 216Q421 315 287 315H89L119 649H508V541H233L219
395Z" />
<glyph unicode="6" glyph-name="six" horiz-adv-x="607" d="M425 471Q420 510 397 532T334 555T263 538T210 487Q166 419 166 303Q166 260 169 238Q180 324 234 364Q281 398 351 398Q441 398 500 340Q558 284 558 192Q558 100 493 43Q428 -14 323 -14Q201 -14
124 78Q47 170 47 313Q47 479 124 572Q199 662 328 662Q426 662 486 610Q547 557 551 471H425ZM275 301T243 273T210 197Q210 150 242 123T322 95T403 122T436 197Q436 244 402 274Q371 301 323 301Z" />
<glyph unicode="7" glyph-name="seven" horiz-adv-x="498" d="M480 649V536L203 0H44L341 535H24V649H480Z" />
<glyph unicode="8" glyph-name="eight" horiz-adv-x="647" d="M429 662T502 610T575 476Q575 427 542 389T445 339Q528 306 560 272Q598 232 598 172Q598 89 526 38Q451 -14 323 -14Q200 -14 124 40Q49 92 49 175Q49 236 91 273T200 319Q113 361 82 428Q71 453
71 485Q71 567 136 614T315 662ZM303 278Q212 272 180 220Q171 205 171 185T183 148T216 119Q256 95 328 95T438 114T476 162T458 208T407 239L303 278ZM259 411L334 382Q382 382 418 406Q453 430 453 469T417 531T323 555Q267 555 230 534Q193 513 193 476T259
411Z" />
<glyph unicode="9" glyph-name="nine" horiz-adv-x="610" d="M293 95Q445 95 445 345Q445 372 441 404Q428 326 376 286Q330 251 259 251Q168 251 111 308T53 456Q53 548 118 605Q183 662 287 662Q405 662 484 572Q564 480 564 335Q564 84 414 10Q364 -14 306
-14T204 1T128 43Q60 100 60 192H183Q185 147 215 121T293 95ZM240 554T208 527T175 451T207 375T288 348Q335 348 368 376Q401 406 401 451Q401 497 368 526Q336 554 288 554Z" />
<glyph unicode=":" glyph-name="colon" horiz-adv-x="270" d="M97 8T74 30T51 86T74 143T133 166Q169 166 193 143T217 86T193 30T133 8Q97 8 74 30ZM97 305T74 327T51 383T74 440T133 463Q169 463 193 440T217 383T193 327T133 305Q97 305 74 327Z" />
<glyph unicode=";" glyph-name="semicolon" horiz-adv-x="308" d="M118 0T99 17T79 64T102 115T165 136T230 105T255 29Q255 -44 189 -104Q168 -123 142 -136L54 -92Q87 -75 112 -54T146 -5Q118 0 99 17ZM131 305T108 327T85 383T108 440T167 463Q203 463 227
440T251 383T227 327T167 305Q131 305 108 327Z" />
<glyph unicode="&lt;" glyph-name="less" horiz-adv-x="502" d="M457 527L166 322L457 118L379 28L45 269V376L379 617L457 527Z" />
<glyph unicode="=" glyph-name="equal" horiz-adv-x="506" d="M427 198V95H79V198H427ZM427 408V306H79V408H427Z" />
<glyph unicode="&gt;" glyph-name="greater" horiz-adv-x="502" d="M123 617L457 376V269L123 28L45 118L335 322L45 527L123 617Z" />
<glyph unicode="?" glyph-name="question" horiz-adv-x="517" d="M485 481Q485 428 459 393T377 329Q330 305 316 288T297 257T293 223V194H175V234Q175 324 229 362Q248 376 285 395T338 433T355 483T330 534T256 555T179 532T147 470H24Q29 557 88 609T253 662T422
610T485 481ZM155 99T177 121T236 143T297 121T321 65Q321 31 297 9T237 -14T178 8T155 65Q155 99 177 121Z" />
<glyph unicode="@" glyph-name="at" horiz-adv-x="1027" d="M609 280Q609 311 598 330T560 349T511 339T469 308Q425 260 425 194Q425 149 448 126T507 102Q542 102 565 121T609 180V280ZM704 150Q704 99 739 99Q755 99 775 109T814 144Q857 200 857 293Q857 409
780 480Q697 556 560 556Q395 556 290 454Q186 354 186 202Q186 55 285 -30Q389 -121 569 -121V-218Q455 -218 363 -185T204 -94T103 42T67 215T104 394T207 537T363 629T553 662T730 634T861 555T946 438T976 297T955 171T901 81T824 25T734 6T657 23T618 73L612
89Q592 51 564 29T493 6T422 20T369 58Q318 113 318 192Q318 295 390 368Q460 440 559 440Q625 440 664 401T704 281V150Z" />
<glyph unicode="A" glyph-name="A" horiz-adv-x="626" d="M243 649H391L604 0H479L434 140H193L147 0H22L243 649ZM223 229H405L315 508L223 229Z" />
<glyph unicode="B" glyph-name="B" horiz-adv-x="648" d="M93 649H355Q463 649 522 598Q578 551 578 477Q578 422 548 383T462 328Q517 317 553 279T589 180Q589 60 470 16Q425 0 356 0H93V649ZM353 103Q410 103 435 126T461 187Q461 225 435 248T353 272H211V103H353ZM211
375H350Q403 375 430 398T457 460T431 523T351 547H211V375Z" />
<glyph unicode="C" glyph-name="C" horiz-adv-x="634" d="M326 662Q386 662 430 648T506 607Q569 556 588 464L462 441Q446 492 413 523T329 555Q261 555 219 498Q174 436 174 327T214 156T323 94T427 127T462 214H589Q589 105 520 46T329 -14Q200 -14 124 76Q47
168 47 326Q47 486 126 576Q202 662 326 662Z" />
<glyph unicode="D" glyph-name="D" horiz-adv-x="686" d="M303 649Q451 649 542 561Q634 473 634 324Q634 176 542 88Q451 0 303 0H92V649H303ZM211 107H303Q395 107 452 169Q506 229 506 324Q506 421 452 481Q396 542 303 542H211V107Z" />
<glyph unicode="E" glyph-name="E" horiz-adv-x="586" d="M92 649H510V547H210V376H491V274H210V103H510V0H92V649Z" />
<glyph unicode="F" glyph-name="F" horiz-adv-x="547" d="M93 649H502V547H211V376H477V275H211V0H93V649Z" />
<glyph unicode="G" glyph-name="G" horiz-adv-x="677" d="M491 103Q449 -14 330 -14Q208 -14 129 78Q47 173 47 321Q47 477 135 571Q220 662 354 662Q445 662 506 623T603 498L482 470Q429 555 348 555Q274 555 225 492Q174 428 174 321Q174 220 220 157Q265 95
340 95Q404 95 445 136Q487 178 487 251V255L341 258V334H600V0H504L491 103Z" />
<glyph unicode="H" glyph-name="H" horiz-adv-x="706" d="M211 649V378H494V649H612V0H494V275H211V0H93V649H211Z" />
<glyph unicode="I" glyph-name="I" horiz-adv-x="304" d="M93 649H211V0H93V649Z" />
<glyph unicode="J" glyph-name="J" horiz-adv-x="444" d="M16 27V145Q93 101 165 101Q208 101 227 126T247 202V649H366V202Q366 90 312 35Q264 -14 180 -14T16 27Z" />
<glyph unicode="K" glyph-name="K" horiz-adv-x="654" d="M212 649V382L468 649H630L344 357L649 0H496L265 275L212 221V0H93V649H212Z" />
<glyph unicode="L" glyph-name="L" horiz-adv-x="494" d="M211 103H478V0H93V649H211V103Z" />
<glyph unicode="M" glyph-name="M" horiz-adv-x="874" d="M262 649L440 263L618 649H781V0H662V493L478 71H401L211 507V0H93V649H262Z" />
<glyph unicode="N" glyph-name="N" horiz-adv-x="717" d="M220 649L506 189V649H624V0H504L209 476V0H91V649H220Z" />
<glyph unicode="O" glyph-name="O" horiz-adv-x="683" d="M342 662Q407 662 461 641T554 577Q636 489 636 325Q636 160 554 70Q476 -14 341 -14Q207 -14 129 72Q47 161 47 325Q47 491 129 579Q206 662 342 662ZM514 435T468 495T342 556T216 496T169 324T216 153T342
93T467 152T514 323Z" />
<glyph unicode="P" glyph-name="P" horiz-adv-x="581" d="M429 649T490 596T552 443T491 290T319 236H209V0H90V649H319Q429 649 490 596ZM319 339Q374 339 402 368T430 442T402 517T319 547H209V339H319Z" />
<glyph unicode="Q" glyph-name="Q" horiz-adv-x="686" d="M628 -162Q587 -180 539 -180Q442 -180 375 -79L332 -14Q203 -12 126 74Q47 165 47 325Q47 491 129 579Q206 662 341 662Q475 662 554 577Q636 489 636 325Q636 190 584 110T444 1L460 -24Q484 -61 531
-63Q574 -63 628 -40V-162ZM514 435T468 495T342 556T216 496T169 324T216 153T342 93T467 152T514 323Z" />
<glyph unicode="R" glyph-name="R" horiz-adv-x="644" d="M575 450Q575 381 536 332T424 264L598 0H444L301 253H211V0H93V649H333Q448 649 512 594Q575 541 575 450ZM322 332Q387 332 420 361T453 439T423 517T333 547H211V332H322Z" />
<glyph unicode="S" glyph-name="S" horiz-adv-x="638" d="M434 470Q418 555 314 555Q263 555 235 535T206 485T224 440T282 409L423 354Q495 326 534 284T573 177Q573 89 507 38T319 -14Q211 -14 144 39Q69 97 65 203H182Q182 123 265 102Q290 95 331 95T407 115T442
170T423 223T361 258L232 309Q157 338 117 377T77 485Q77 566 140 613Q204 662 313 662T482 612T551 470H434Z" />
<glyph unicode="T" glyph-name="T" horiz-adv-x="532" d="M6 649H526V547H325V0H207V547H6V649Z" />
<glyph unicode="U" glyph-name="U" horiz-adv-x="690" d="M201 649V245Q201 165 241 130T346 95Q410 95 450 130T491 245V649H609V245Q609 121 540 54T346 -14Q221 -14 152 53T83 245V649H201Z" />
<glyph unicode="V" glyph-name="V" horiz-adv-x="607" d="M145 649L303 148L463 649H587L364 0H240L20 649H145Z" />
<glyph unicode="W" glyph-name="W" horiz-adv-x="966" d="M152 649L295 156L434 606H514L661 154L813 649H946L723 0H599L477 366L356 0H232L20 649H152Z" />
<glyph unicode="X" glyph-name="X" horiz-adv-x="684" d="M649 0H501L330 230L178 0H34L263 323L33 649H178L342 415L484 649H627L408 325L649 0Z" />
<glyph unicode="Y" glyph-name="Y" horiz-adv-x="604" d="M156 649L299 390L449 649H588L357 268V0H239V268L16 649H156Z" />
<glyph unicode="Z" glyph-name="Z" horiz-adv-x="629" d="M73 102L416 540L73 541V649H564V548L222 109L564 108V0H73V102Z" />
<glyph unicode="[" glyph-name="bracketleft" horiz-adv-x="352" d="M93 790H340V684H211V-34H340V-141H93V790Z" />
<glyph unicode="\" glyph-name="backslash" horiz-adv-x="472" d="M41 746H161L419 -80H298L41 746Z" />
<glyph unicode="]" glyph-name="bracketright" horiz-adv-x="336" d="M243 -141H-4V-34H125V684H-4V790H243V-141Z" />
<glyph unicode="^" glyph-name="asciicircum" horiz-adv-x="527" d="M20 218L218 603H314L511 218H381L266 464L150 218H20Z" />
<glyph unicode="_" glyph-name="underscore" horiz-adv-x="768" d="M55 -55H714V-158H55V-55Z" />
<glyph unicode="`" glyph-name="grave" horiz-adv-x="356" d="M66 900L333 768L303 694L24 798L66 900Z" />
<glyph unicode="a" glyph-name="a" horiz-adv-x="584" d="M253 284Q311 284 387 265V313Q387 364 367 388T300 413T228 395T203 342H74Q74 425 132 462T296 499Q446 499 490 394Q505 358 505 309V0H402L393 65Q346 -14 249 -14Q155 -14 103 32Q55 76 55 143T108
247T253 284ZM387 190Q328 206 277 206Q181 206 181 142Q181 115 203 96T273 76T353 108T387 190Z" />
<glyph unicode="b" glyph-name="b" horiz-adv-x="614" d="M563 359T563 245T498 57Q435 -14 341 -14Q296 -14 259 10T199 84L170 0H93V686H211V425Q257 499 348 499T501 429ZM211 273V209Q213 158 248 125Q281 93 328 93T410 134T444 244T411 352T327 393T244
360T211 273Z" />
<glyph unicode="c" glyph-name="c" horiz-adv-x="530" d="M278 499Q324 499 360 484T422 443Q472 395 481 322L362 319Q354 351 333 372T283 393T235 385T200 358Q166 316 166 242T198 131T275 93T341 114T362 173H481Q481 93 428 40Q374 -14 277 -14Q181 -14
116 56Q47 131 47 243Q47 361 116 432Q181 499 278 499Z" />
<glyph unicode="d" glyph-name="d" horiz-adv-x="614" d="M410 75Q365 -14 272 -14Q179 -14 116 57Q51 131 51 245T113 430Q174 499 265 499T402 426V686H521V0H424L410 75ZM237 393T204 353T170 244T204 135T290 93Q333 93 367 127Q402 162 402 215V278Q400 330
367 363Q337 393 287 393Z" />
<glyph unicode="e" glyph-name="e" horiz-adv-x="530" d="M457 396T469 354T482 277T478 214H164Q166 155 193 118T275 81Q348 81 362 145H481Q469 72 414 30Q357 -14 275 -14Q179 -14 114 56Q47 129 47 243Q47 360 114 431Q178 499 275 499Q376 499 432 428Q457
396 469 354ZM276 405Q226 405 198 373T165 289H372Q372 368 322 395Q303 405 276 405Z" />
<glyph unicode="f" glyph-name="f" horiz-adv-x="366" d="M40 486H112V543Q112 618 156 658Q196 694 260 694Q301 694 361 682L338 591Q310 601 288 601T248 589T231 542V486H320V407H231V0H112V407H40V486Z" />
<glyph unicode="g" glyph-name="g" horiz-adv-x="582" d="M135 199Q76 249 76 324Q76 403 138 452Q198 499 275 499T405 470Q411 527 454 562Q496 597 553 597L547 484Q461 484 458 427Q495 381 495 333T478 253T432 198Q372 150 286 150Q237 150 197 165Q157
153 157 117Q157 72 233 72H396Q562 72 562 -44Q562 -83 543 -120T486 -187Q404 -251 280 -251Q160 -251 85 -202Q15 -155 15 -87Q15 -42 42 -16T115 18Q56 54 56 107Q56 142 78 165T135 199ZM225 -11Q131 -15 131 -82Q131 -116 170 -136T264 -157T348 -148T400
-124Q445 -94 445 -52Q445 -34 433 -23T396 -11H225ZM378 366T356 391T287 417T217 392T193 326T217 259T287 233Q333 233 355 259T378 325Z" />
<glyph unicode="h" glyph-name="h" horiz-adv-x="623" d="M211 407Q261 499 357 499T498 440T544 284V0H426V284Q426 338 400 365T327 393T247 351T211 225V0H93V686H211V407Z" />
<glyph unicode="i" glyph-name="i" horiz-adv-x="328" d="M103 487H221V0H103V487ZM89 643Q89 675 108 693T162 712Q196 712 215 694T235 643Q235 611 216 593T162 574Q127 574 108 592T89 643Z" />
<glyph unicode="j" glyph-name="j" horiz-adv-x="335" d="M95 643Q95 675 114 693T168 712T222 694T241 643Q241 611 222 593T169 574T115 592T95 643ZM-74 -118Q-14 -148 29 -148T91 -128T110 -56V488H228V-58Q228 -162 185 -206T72 -251T-76 -220L-74 -118Z" />
<glyph unicode="k" glyph-name="k" horiz-adv-x="575" d="M265 237L211 192V0H93V686H211V315L403 486H563L348 306L575 0H431L265 237Z" />
<glyph unicode="l" glyph-name="l" horiz-adv-x="304" d="M93 686H211V0H93V686Z" />
<glyph unicode="m" glyph-name="m" horiz-adv-x="949" d="M525 394Q572 499 690 499Q777 499 825 440Q871 384 871 284V0H752V284Q752 338 726 365T653 393T576 352T544 228V0H426V284Q426 338 400 365T327 393T247 351T211 225V0H93V486H196L209 402Q257 499
363 499Q424 499 464 471T525 394Z" />
<glyph unicode="n" glyph-name="n" horiz-adv-x="623" d="M209 402Q257 499 363 499Q453 499 498 440T544 284V0H426V284Q426 338 400 365T327 393T247 351T211 225V0H93V486H196L209 402Z" />
<glyph unicode="o" glyph-name="o" horiz-adv-x="566" d="M284 499Q333 499 376 484T450 436Q519 366 519 242Q519 120 450 50Q388 -14 284 -14Q180 -14 116 50Q47 119 47 242Q47 367 116 436Q179 499 284 499ZM401 320T371 358T288 397T200 359T166 243T196 128T280
89Q333 89 367 127T401 243Z" />
<glyph unicode="p" glyph-name="p" horiz-adv-x="610" d="M201 420Q247 499 341 499Q431 499 495 431Q563 359 563 243Q563 126 494 54Q430 -14 341 -14T211 39V-237H93V486H190L201 420ZM320 93Q341 93 363 102T404 130Q444 172 444 242T410 353T326 393T245
365T211 283V196Q211 149 244 120Q275 93 320 93Z" />
<glyph unicode="q" glyph-name="q" horiz-adv-x="610" d="M398 63Q362 -14 274 -14Q180 -14 116 54Q47 126 47 243Q47 358 114 431Q177 499 268 499Q313 499 351 478T414 411L440 486H517V-75Q517 -118 527 -132T551 -152T583 -165L549 -251Q467 -231 433 -187T398
-66V63ZM398 333T366 363T285 393T201 353T166 243Q166 172 206 130Q241 93 291 93Q332 93 363 118Q396 146 398 191V278Q398 333 366 363Z" />
<glyph unicode="r" glyph-name="r" horiz-adv-x="416" d="M211 390Q255 495 343 495Q360 495 386 488L384 370Q356 376 329 376Q211 376 211 213V0H93V487H211V390Z" />
<glyph unicode="s" glyph-name="s" horiz-adv-x="527" d="M159 148Q161 79 260 79Q298 79 322 95T347 134T332 168T285 190L179 228Q61 269 61 362Q61 424 116 461T265 499T409 458T462 355H351Q349 379 328 393T268 407T208 392T186 356Q186 321 245 304L360
261Q417 242 447 213T478 136Q478 76 421 32Q362 -14 265 -14T109 28T49 148H159Z" />
<glyph unicode="t" glyph-name="t" horiz-adv-x="395" d="M367 12Q301 -14 263 -14T197 -5T146 22Q100 63 100 135V407H32V486H100V614H218V486H350V407H218V139Q218 79 275 79Q304 79 350 95L367 12Z" />
<glyph unicode="u" glyph-name="u" horiz-adv-x="627" d="M416 88Q370 -9 268 -9Q139 -9 98 92Q83 127 83 177V487H201V189Q201 141 224 118T280 94T337 103T377 132Q414 175 416 247V487H534V0H416V88Z" />
<glyph unicode="v" glyph-name="v" horiz-adv-x="519" d="M148 486L259 117L371 486H507L326 0H193L12 486H148Z" />
<glyph unicode="w" glyph-name="w" horiz-adv-x="758" d="M136 486L234 139L327 459H434L527 138L626 486H744L584 0H468L378 291L290 0H173L12 486H136Z" />
<glyph unicode="x" glyph-name="x" horiz-adv-x="554" d="M537 0H393L273 156L161 0H16L205 242L16 487H161L280 331L393 487H537L349 242L537 0Z" />
<glyph unicode="y" glyph-name="y" horiz-adv-x="504" d="M153 486L270 136L372 486H492L306 -88Q277 -175 236 -213T130 -251Q65 -251 0 -219V-115Q52 -148 105 -148Q140 -148 162 -120T199 -47L214 0L19 486H153Z" />
<glyph unicode="z" glyph-name="z" horiz-adv-x="495" d="M57 96L309 390H57V486H439V390L195 96H439V0H57V96Z" />
<glyph unicode="{" glyph-name="braceleft" horiz-adv-x="391" d="M387 -156Q256 -156 190 -86Q129 -21 129 96V187Q129 229 123 244T96 260H71V379H96Q116 379 122 394T129 452V544Q129 723 270 776Q319 795 387 795V688Q313 688 280 653T246 542V446Q246 398
228 367T180 322V317Q209 303 227 272T246 193V97Q246 22 279 -13T387 -49V-156Z" />
<glyph unicode="|" glyph-name="bar" horiz-adv-x="304" d="M93 771H211V-122H93V771Z" />
<glyph unicode="}" glyph-name="braceright" horiz-adv-x="391" d="M4 -49Q78 -49 111 -14T145 97V193Q145 241 163 272T211 317V322Q182 336 164 367T145 446V542Q145 617 112 652T4 688V795Q135 795 202 724Q262 660 262 544V452Q262 410 268 395T295 379H320V260H295Q275
260 269 245T262 187V96Q262 -84 121 -138Q72 -156 4 -156V-49Z" />
<glyph unicode="~" glyph-name="asciitilde" horiz-adv-x="570" d="M184 265Q146 265 120 204L57 238Q74 303 104 340T185 378Q219 378 274 357Q360 324 384 324Q425 324 449 380L513 339Q473 212 375 212Q342 212 273 240Q236 253 218 259T184 265Z" />
<glyph unicode="&#xa0;" glyph-name="space" horiz-adv-x="253" />
<glyph unicode="&#xa3;" glyph-name="sterling" horiz-adv-x="602" d="M22 107H54Q91 107 106 128T121 194V281H38V360H121V444Q121 552 177 607T325 662Q493 662 517 487H401Q396 520 376 537T322 555T263 528T239 444V360H410V281H239V202Q239 137 203 107H339Q389
107 410 125T437 184H566Q562 92 512 48Q456 0 340 0H22V107Z" />
<glyph unicode="&#xa8;" glyph-name="dieresis" horiz-adv-x="382" d="M63 770T44 788T24 835T43 883T94 902Q125 902 145 883T165 836T145 789T94 770Q63 770 44 788ZM217 836Q217 865 237 884T287 903T338 884T358 836Q358 807 338 789T288 771T237 789T217 836Z" />
<glyph unicode="&#xb4;" glyph-name="acute" horiz-adv-x="356" d="M332 798L53 694L23 768L290 900L332 798Z" />
<glyph unicode="&#xc0;" glyph-name="Agrave" horiz-adv-x="626" d="M243 649H391L604 0H479L434 140H193L147 0H22L243 649ZM205 900L472 768L442 694L163 798L205 900ZM223 229H405L315 508L223 229Z" />
<glyph unicode="&#xc1;" glyph-name="Aacute" horiz-adv-x="626" d="M243 649H391L604 0H479L434 140H193L147 0H22L243 649ZM471 798L192 694L162 768L429 900L471 798ZM223 229H405L315 508L223 229Z" />
<glyph unicode="&#xc2;" glyph-name="Acircumflex" horiz-adv-x="626" d="M243 649H391L604 0H479L434 140H193L147 0H22L243 649ZM524 752L449 693L316 794L182 693L107 752L316 913L524 752ZM223 229H405L315 508L223 229Z" />
<glyph unicode="&#xc3;" glyph-name="Atilde" horiz-adv-x="626" d="M243 649H391L604 0H479L434 140H193L147 0H22L243 649ZM386 838Q418 838 439 887L489 854Q478 800 450 766T389 731Q371 731 354 738T310 758Q265 781 249 781Q214 781 190 731L143 759Q155
820 183 853T250 887Q277 887 313 869T361 844T386 838ZM223 229H405L315 508L223 229Z" />
<glyph unicode="&#xc4;" glyph-name="Adieresis" horiz-adv-x="626" d="M243 649H391L604 0H479L434 140H193L147 0H22L243 649ZM223 229H405L315 508L223 229ZM188 749T169 767T149 814T168 862T219 881Q250 881 270 862T290 815T270 768T219 749Q188 749 169
767ZM342 815Q342 844 362 863T412 882T463 863T483 815Q483 786 463 768T413 750T362 768T342 815Z" />
<glyph unicode="&#xc8;" glyph-name="Egrave" horiz-adv-x="588" d="M92 649H510V547H210V376H491V274H210V103H510V0H92V649ZM190 900L457 768L427 694L148 798L190 900Z" />
<glyph unicode="&#xc9;" glyph-name="Eacute" horiz-adv-x="588" d="M92 0H510V103H210V274H491V376H210V547H510V649H92V0ZM456 798L177 694L147 768L414 900L456 798Z" />
<glyph unicode="&#xca;" glyph-name="Ecircumflex" horiz-adv-x="588" d="M102 649H520V547H220V376H501V274H220V103H520V0H102V649ZM520 752L445 693L312 794L178 693L103 752L312 913L520 752Z" />
<glyph unicode="&#xcb;" glyph-name="Edieresis" horiz-adv-x="588" d="M92 649H510V547H210V376H491V274H210V103H510V0H92V649ZM174 749T155 767T135 814T154 862T205 881Q236 881 256 862T276 815T256 768T205 749Q174 749 155 767ZM328 815Q328 844 348 863T398
882T449 863T469 815Q469 786 449 768T399 750T348 768T328 815Z" />
<glyph unicode="&#xcc;" glyph-name="Igrave" horiz-adv-x="304" d="M93 649H211V0H93V649ZM41 900L308 768L278 694L-1 798L41 900Z" />
<glyph unicode="&#xcd;" glyph-name="Iacute" horiz-adv-x="304" d="M93 0H211V649H93V0ZM307 798L28 694L-2 768L265 900L307 798Z" />
<glyph unicode="&#xce;" glyph-name="Icircumflex" horiz-adv-x="304" d="M93 649H211V0H93V649ZM361 752L286 693L153 794L19 693L-56 752L153 913L361 752Z" />
<glyph unicode="&#xcf;" glyph-name="Idieresis" horiz-adv-x="304" d="M93 649H211V0H93V649ZM25 749T6 767T-14 814T5 862T56 881Q87 881 107 862T127 815T107 768T56 749Q25 749 6 767ZM179 815Q179 844 199 863T249 882T300 863T320 815Q320 786 300 768T250
750T199 768T179 815Z" />
<glyph unicode="&#xd1;" glyph-name="Ntilde" horiz-adv-x="720" d="M91 649V0H209V476L504 0H624V649H506V189L220 649H91ZM429 838Q461 838 482 887L532 854Q521 800 493 766T432 731Q414 731 397 738T352 758Q308 781 292 781Q257 781 233 731L186 759Q198
820 226 853T293 887Q320 887 356 869T404 844T429 838Z" />
<glyph unicode="&#xd2;" glyph-name="Ograve" horiz-adv-x="683" d="M342 662Q407 662 461 641T554 577Q636 489 636 325Q636 160 554 70Q476 -14 341 -14Q207 -14 129 72Q47 161 47 325Q47 491 129 579Q206 662 342 662ZM514 435T468 495T342 556T216 496T169
324T216 153T342 93T467 152T514 323ZM228 900L495 768L465 694L186 798L228 900Z" />
<glyph unicode="&#xd3;" glyph-name="Oacute" horiz-adv-x="683" d="M342 662Q276 662 222 642T129 579Q47 491 47 325Q47 161 129 72Q207 -14 341 -14Q476 -14 554 70Q636 160 636 325Q636 489 554 577Q475 662 342 662ZM169 435T216 495T342 556T467 496T514
324T468 153T342 93T216 152T169 323ZM494 798L215 694L185 768L452 900L494 798Z" />
<glyph unicode="&#xd4;" glyph-name="Ocircumflex" horiz-adv-x="683" d="M342 662Q407 662 461 641T554 577Q636 489 636 325Q636 160 554 70Q476 -14 341 -14Q207 -14 129 72Q47 161 47 325Q47 491 129 579Q206 662 342 662ZM514 435T468 495T342 556T216 496T169
324T216 153T342 93T467 152T514 323ZM549 752L474 693L341 794L207 693L132 752L341 913L549 752Z" />
<glyph unicode="&#xd5;" glyph-name="Otilde" horiz-adv-x="683" d="M342 662Q276 662 222 642T129 579Q47 491 47 325Q47 161 129 72Q207 -14 341 -14Q476 -14 554 70Q636 160 636 325Q636 489 554 577Q475 662 342 662ZM169 435T216 495T342 556T467 496T514
324T468 153T342 93T216 152T169 323ZM411 838Q443 838 464 887L514 854Q503 800 475 766T414 731Q396 731 379 738T334 758Q290 781 274 781Q239 781 215 731L168 759Q180 820 208 853T275 887Q302 887 338 869T386 844T411 838Z" />
<glyph unicode="&#xd6;" glyph-name="Odieresis" horiz-adv-x="683" d="M342 662Q407 662 461 641T554 577Q636 489 636 325Q636 160 554 70Q476 -14 341 -14Q207 -14 129 72Q47 161 47 325Q47 491 129 579Q206 662 342 662ZM514 435T468 495T342 556T216 496T169
324T216 153T342 93T467 152T514 323ZM213 749T194 767T174 814T193 862T244 881Q275 881 295 862T315 815T295 768T244 749Q213 749 194 767ZM367 815Q367 844 387 863T437 882T488 863T508 815Q508 786 488 768T438 750T387 768T367 815Z" />
<glyph unicode="&#xd9;" glyph-name="Ugrave" horiz-adv-x="690" d="M201 649V245Q201 165 241 130T346 95Q410 95 450 130T491 245V649H609V245Q609 121 540 54T346 -14Q221 -14 152 53T83 245V649H201ZM233 900L500 768L470 694L191 798L233 900Z" />
<glyph unicode="&#xda;" glyph-name="Uacute" horiz-adv-x="690" d="M83 649V245Q83 121 152 54T346 -14Q471 -14 540 53T609 245V649H491V245Q491 165 451 130T346 95Q282 95 242 130T201 245V649H83ZM499 798L220 694L190 768L457 900L499 798Z" />
<glyph unicode="&#xdb;" glyph-name="Ucircumflex" horiz-adv-x="690" d="M201 649V245Q201 165 241 130T346 95Q410 95 450 130T491 245V649H609V245Q609 121 540 54T346 -14Q221 -14 152 53T83 245V649H201ZM554 752L479 693L346 794L212 693L137 752L346 913L554 752Z" />
<glyph unicode="&#xdc;" glyph-name="Udieresis" horiz-adv-x="690" d="M201 649V245Q201 165 241 130T346 95Q410 95 450 130T491 245V649H609V245Q609 121 540 54T346 -14Q221 -14 152 53T83 245V649H201ZM219 749T200 767T180 814T199 862T250 881Q281 881
301 862T321 815T301 768T250 749Q219 749 200 767ZM373 815Q373 844 393 863T443 882T494 863T514 815Q514 786 494 768T444 750T393 768T373 815Z" />
<glyph unicode="&#xe0;" glyph-name="agrave" horiz-adv-x="585" d="M253 284Q311 284 387 265V313Q387 364 367 388T300 413T228 395T203 342H74Q74 425 132 462T296 499Q446 499 490 394Q505 358 505 309V0H402L393 65Q346 -14 249 -14Q155 -14 103 32Q55 76
55 143T108 247T253 284ZM185 764L452 632L422 558L143 662L185 764ZM387 190Q328 206 277 206Q181 206 181 142Q181 115 203 96T273 76T353 108T387 190Z" />
<glyph unicode="&#xe1;" glyph-name="aacute" horiz-adv-x="585" d="M253 284Q311 284 387 265V313Q387 364 367 388T300 413T228 395T203 342H74Q74 425 132 462T296 499Q446 499 490 394Q505 358 505 309V0H402L393 65Q346 -14 249 -14Q155 -14 103 32Q55 76
55 143T108 247T253 284ZM451 662L172 558L142 632L409 764L451 662ZM387 190Q328 206 277 206Q181 206 181 142Q181 115 203 96T273 76T353 108T387 190Z" />
<glyph unicode="&#xe2;" glyph-name="acircumflex" horiz-adv-x="585" d="M253 284Q311 284 387 265V313Q387 364 367 388T300 413T228 395T203 342H74Q74 425 132 462T296 499Q446 499 490 394Q505 358 505 309V0H402L393 65Q346 -14 249 -14Q155 -14 103 32Q55
76 55 143T108 247T253 284ZM506 616L431 557L298 658L164 557L89 616L298 777L506 616ZM387 190Q328 206 277 206Q181 206 181 142Q181 115 203 96T273 76T353 108T387 190Z" />
<glyph unicode="&#xe3;" glyph-name="atilde" horiz-adv-x="585" d="M253 284Q311 284 387 265V313Q387 364 367 388T300 413T228 395T203 342H74Q74 425 132 462T296 499Q446 499 490 394Q505 358 505 309V0H402L393 65Q346 -14 249 -14Q155 -14 103 32Q55 76
55 143T108 247T253 284ZM368 702Q400 702 421 751L471 718Q460 664 432 630T371 595Q353 595 336 602T292 622Q247 645 231 645Q196 645 172 595L125 623Q137 684 165 717T232 751Q259 751 295 733T343 708T368 702ZM387 190Q328 206 277 206Q181 206 181 142Q181
115 203 96T273 76T353 108T387 190Z" />
<glyph unicode="&#xe4;" glyph-name="adieresis" horiz-adv-x="585" d="M253 284Q311 284 387 265V313Q387 364 367 388T300 413T228 395T203 342H74Q74 425 132 462T296 499Q446 499 490 394Q505 358 505 309V0H402L393 65Q346 -14 249 -14Q155 -14 103 32Q55
76 55 143T108 247T253 284ZM387 190Q328 206 277 206Q181 206 181 142Q181 115 203 96T273 76T353 108T387 190ZM170 613T151 631T131 678T150 726T201 745Q232 745 252 726T272 679T252 632T201 613Q170 613 151 631ZM324 679Q324 708 344 727T394 746T445 727T465
679Q465 650 445 632T395 614T344 632T324 679Z" />
<glyph unicode="&#xe8;" glyph-name="egrave" horiz-adv-x="530" d="M457 396T469 354T482 277T478 214H164Q166 155 193 118T275 81Q348 81 362 145H481Q469 72 414 30Q357 -14 275 -14Q179 -14 114 56Q47 129 47 243Q47 360 114 431Q178 499 275 499Q376 499
432 428Q457 396 469 354ZM154 774L421 642L391 568L112 672L154 774ZM276 405Q226 405 198 373T165 289H372Q372 368 322 395Q303 405 276 405Z" />
<glyph unicode="&#xe9;" glyph-name="eacute" horiz-adv-x="530" d="M362 145Q348 81 275 81Q220 81 193 118T164 214H478Q482 242 482 277T470 354T432 428Q376 499 275 499Q178 499 114 431Q47 360 47 243Q47 129 114 56Q179 -14 275 -14Q357 -14 414 30Q469
72 481 145H362ZM420 672L141 568L111 642L378 774L420 672ZM372 289H165Q170 340 198 372T276 405T349 373T372 289Z" />
<glyph unicode="&#xea;" glyph-name="ecircumflex" horiz-adv-x="530" d="M464 396T476 354T489 277T485 214H171Q173 155 200 118T282 81Q355 81 369 145H488Q476 72 421 30Q364 -14 282 -14Q186 -14 121 56Q54 129 54 243Q54 360 121 431Q185 499 282 499Q383
499 438 428Q464 396 476 354ZM480 626L405 567L272 668L138 567L63 626L272 787L480 626ZM283 405Q233 405 205 373T172 289H379Q379 368 328 395Q310 405 283 405Z" />
<glyph unicode="&#xeb;" glyph-name="edieresis" horiz-adv-x="530" d="M457 396T469 354T482 277T478 214H164Q166 155 193 118T275 81Q348 81 362 145H481Q469 72 414 30Q357 -14 275 -14Q179 -14 114 56Q47 129 47 243Q47 360 114 431Q178 499 275 499Q376
499 432 428Q457 396 469 354ZM276 405Q226 405 198 373T165 289H372Q372 368 322 395Q303 405 276 405ZM138 613T119 631T99 678T118 726T169 745Q200 745 220 726T240 679T220 632T169 613Q138 613 119 631ZM292 679Q292 708 312 727T362 746T413 727T433 679Q433
650 413 632T363 614T312 632T292 679Z" />
<glyph unicode="&#xec;" glyph-name="igrave" horiz-adv-x="328" d="M103 487H221V0H103V487ZM50 764L317 632L287 558L8 662L50 764Z" />
<glyph unicode="&#xed;" glyph-name="iacute" horiz-adv-x="328" d="M103 0H221V487H103V0ZM316 662L37 558L7 632L274 764L316 662Z" />
<glyph unicode="&#xee;" glyph-name="icircumflex" horiz-adv-x="328" d="M103 487H221V0H103V487ZM370 616L295 557L162 658L28 557L-47 616L162 777L370 616Z" />
<glyph unicode="&#xef;" glyph-name="idieresis" horiz-adv-x="328" d="M103 487H221V0H103V487ZM34 613T15 631T-5 678T14 726T65 745Q96 745 116 726T136 679T116 632T65 613Q34 613 15 631ZM188 679Q188 708 208 727T258 746T309 727T329 679Q329 650 309 632T259
614T208 632T188 679Z" />
<glyph unicode="&#xf1;" glyph-name="ntilde" horiz-adv-x="623" d="M363 499Q257 499 209 402L196 486H93V0H211V225Q213 309 246 351T327 393T400 366T426 284V0H544V284Q544 381 499 440T363 499ZM384 702Q416 702 437 751L487 718Q476 664 448 630T387 595Q369
595 352 602T308 622Q263 645 247 645Q212 645 188 595L141 623Q153 684 181 717T248 751Q275 751 311 733T359 708T384 702Z" />
<glyph unicode="&#xf2;" glyph-name="ograve" horiz-adv-x="566" d="M284 499Q333 499 376 484T450 436Q519 366 519 242Q519 120 450 50Q388 -14 284 -14Q180 -14 116 50Q47 119 47 242Q47 367 116 436Q179 499 284 499ZM401 320T371 358T288 397T200 359T166
243T196 128T280 89Q333 89 367 127T401 243ZM172 764L439 632L409 558L130 662L172 764Z" />
<glyph unicode="&#xf3;" glyph-name="oacute" horiz-adv-x="566" d="M284 499Q234 499 191 484T116 436Q47 367 47 242Q47 119 116 50Q180 -14 284 -14Q388 -14 450 50Q519 120 519 242Q519 366 450 436Q388 499 284 499ZM166 320T200 358T287 397T371 359T401
243T367 128T280 89Q227 89 197 127T166 243ZM438 662L159 558L129 632L396 764L438 662Z" />
<glyph unicode="&#xf4;" glyph-name="ocircumflex" horiz-adv-x="566" d="M284 499Q333 499 376 484T450 436Q519 366 519 242Q519 120 450 50Q388 -14 284 -14Q180 -14 116 50Q47 119 47 242Q47 367 116 436Q179 499 284 499ZM401 320T371 358T288 397T200 359T166
243T196 128T280 89Q333 89 367 127T401 243ZM492 616L417 557L284 658L150 557L75 616L284 777L492 616Z" />
<glyph unicode="&#xf5;" glyph-name="otilde" horiz-adv-x="566" d="M284 499Q234 499 191 484T116 436Q47 367 47 242Q47 119 116 50Q180 -14 284 -14Q388 -14 450 50Q519 120 519 242Q519 366 450 436Q388 499 284 499ZM166 320T200 358T287 397T371 359T401
243T367 128T280 89Q227 89 197 127T166 243ZM353 702Q385 702 406 751L456 718Q445 664 417 630T356 595Q338 595 321 602T276 622Q232 645 216 645Q181 645 157 595L110 623Q122 684 150 717T217 751Q244 751 280 733T328 708T353 702Z" />
<glyph unicode="&#xf6;" glyph-name="odieresis" horiz-adv-x="566" d="M284 499Q333 499 376 484T450 436Q519 366 519 242Q519 120 450 50Q388 -14 284 -14Q180 -14 116 50Q47 119 47 242Q47 367 116 436Q179 499 284 499ZM401 320T371 358T288 397T200 359T166
243T196 128T280 89Q333 89 367 127T401 243ZM156 613T137 631T117 678T136 726T187 745Q218 745 238 726T258 679T238 632T187 613Q156 613 137 631ZM310 679Q310 708 330 727T380 746T431 727T451 679Q451 650 431 632T381 614T330 632T310 679Z" />
<glyph unicode="&#xf9;" glyph-name="ugrave" horiz-adv-x="627" d="M416 88Q370 -9 268 -9Q139 -9 98 92Q83 127 83 177V487H201V189Q201 141 224 118T280 94T337 103T377 132Q414 175 416 247V487H534V0H416V88ZM201 784L468 652L438 578L159 682L201 784Z" />
<glyph unicode="&#xfa;" glyph-name="uacute" horiz-adv-x="627" d="M268 -9Q370 -9 416 88V0H534V487H416V255Q416 178 378 134Q344 94 296 94T224 117T201 189V487H83V177Q83 83 136 34Q183 -9 268 -9ZM467 682L188 578L158 652L425 784L467 682Z" />
<glyph unicode="&#xfb;" glyph-name="ucircumflex" horiz-adv-x="627" d="M416 88Q370 -9 268 -9Q139 -9 98 92Q83 127 83 177V487H201V189Q201 141 224 118T280 94T337 103T377 132Q414 175 416 247V487H534V0H416V88ZM521 636L446 577L313 678L179 577L104 636L313
797L521 636Z" />
<glyph unicode="&#xfc;" glyph-name="udieresis" horiz-adv-x="627" d="M416 88Q370 -9 268 -9Q139 -9 98 92Q83 127 83 177V487H201V189Q201 141 224 118T280 94T337 103T377 132Q414 175 416 247V487H534V0H416V88ZM185 613T166 631T146 678T165 726T216 745Q247
745 267 726T287 679T267 632T216 613Q185 613 166 631ZM339 679Q339 708 359 727T409 746T460 727T480 679Q480 650 460 632T410 614T359 632T339 679Z" />
<glyph unicode="&#x2013;" glyph-name="endash" horiz-adv-x="525" d="M55 353H470V250H55V353Z" />
<glyph unicode="&#x2014;" glyph-name="emdash" horiz-adv-x="768" d="M55 353H714V250H55V353Z" />
<glyph unicode="&#x2018;" glyph-name="quoteleft" horiz-adv-x="271" d="M212 421T190 400T127 379T62 410T36 488T68 580T155 652L238 606Q161 570 145 519Q173 514 192 497T212 451Z" />
<glyph unicode="&#x2019;" glyph-name="quoteright" horiz-adv-x="271" d="M54 611T77 631T139 652T204 621T230 543T198 451T111 379L29 424Q106 463 122 512Q93 517 74 534T54 581Z" />
</font>
</defs>
</svg>
