<?xml version="1.0" standalone="no"?>
<!DOCTYPE svg PUBLIC "-//W3C//DTD SVG 1.1//EN" "http://www.w3.org/Graphics/SVG/1.1/DTD/svg11.dtd">
<svg xmlns="http://www.w3.org/2000/svg">
<defs >
<font id="Karla" horiz-adv-x="1011" ><font-face
    font-family="Karla ExtraLight"
    units-per-em="2000"
    panose-1="2 11 0 4 3 5 3 3 0 3"
    ascent="1834"
    descent="-504"
    alphabetic="0" />
<glyph unicode=" " horiz-adv-x="506" />
<glyph unicode="!" horiz-adv-x="586" d="M198 438L172 1326H428L400 438H198ZM301 -18Q228 -18 182 26T136 140Q136 206 182 252T301 298Q372 298 420 252T468 140Q468 71 420 27T301 -18Z" />
<glyph unicode="&quot;" horiz-adv-x="765" d="M64 1372H300L268 896H94L64 1372ZM466 1372H702L670 896H496L466 1372Z" />
<glyph unicode="#" horiz-adv-x="1356" d="M270 66L298 328H114L128 482H314L348 798H162L178 952H364L392 1212H614L586 952H858L886 1212H1106L1080 952H1266L1250 798H1062L1030 482H1218L1202 328H1014L986 66H764L792 328H520L492 66H270ZM536 482H808L842
798H570L536 482Z" />
<glyph unicode="$" horiz-adv-x="1378" d="M708 -28Q593 -28 489 -3T304 76T177 212T130 406H362Q362 329 404 281T526 210T720 188Q812 188 869 210T954 270T982 352Q982 409 944 451T836 518L694 572V776L950 686Q1100 634 1174 554T1248 346Q1248 252 1191
167T1014 27T708 -28ZM606 -202V1474H774V-202H606ZM652 568L506 618Q338 675 247 754T156 970Q156 1127 290 1225T682 1324Q920 1324 1045 1221T1200 940H966Q951 1017 879 1069T678 1122Q546 1122 479 1078T412 962Q412 910 444 878T546 820L652 776V568Z" />
<glyph unicode="%" horiz-adv-x="1529" d="M212 0L1092 1298H1330L452 0H212ZM1150 -22Q1078 -22 1016 11T916 112T878 282Q878 385 916 452T1016 553T1150 586Q1224 586 1286 553T1387 453T1426 282Q1426 180 1388 113T1287 12T1150 -22ZM1150 130Q1194 130 1221
164T1248 282Q1248 365 1221 400T1150 436Q1107 436 1081 401T1054 282Q1054 198 1080 164T1150 130ZM394 718Q322 718 260 751T160 853T122 1022Q122 1123 160 1190T260 1290T394 1324Q469 1324 531 1291T632 1190T670 1022Q670 921 632 853T532 752T394 718ZM394
868Q438 868 465 903T492 1022Q492 1105 465 1139T394 1174Q351 1174 325 1140T298 1022Q298 938 324 903T394 868Z" />
<glyph unicode="&amp;" horiz-adv-x="1930" d="M1512 -28Q1415 -28 1331 14T1152 144L518 718Q455 775 415 849T374 1004Q374 1092 425 1163T574 1277T812 1320Q947 1320 1043 1278T1189 1165T1240 1008Q1240 918 1196 847T1064 719T844 618L720 734Q810 770 867
806T952 884T980 978Q980 1038 934 1077T812 1116Q725 1116 680 1073T634 970Q634 924 657 883T728 798L1342 244Q1378 213 1410 197T1488 180Q1536 180 1570 215T1608 328H1822Q1818 165 1741 69T1512 -28ZM720 -28Q609 -28 512 2T341 86T226 212T184 370Q184
524 309 604T658 702L734 574Q581 561 513 513T444 384Q444 330 476 285T572 213T722 186Q833 186 928 230T1104 355T1251 542T1368 776L1526 688Q1472 528 1393 397T1211 170T986 24T720 -28Z" />
<glyph unicode="&apos;" horiz-adv-x="359" d="M62 1354H298L266 878H92L62 1354Z" />
<glyph unicode="(" horiz-adv-x="799" d="M564 1508L734 1384Q619 1264 543 1144T428 899T390 636Q390 432 476 252T734 -108L564 -236Q349 -45 248 174T146 636Q146 881 247 1100T564 1508Z" />
<glyph unicode=")" horiz-adv-x="799" d="M236 -236L64 -108Q237 71 323 251T410 636Q410 773 372 898T256 1144T64 1384L236 1508Q449 1319 551 1100T654 636Q654 474 609 323T471 31T236 -236Z" />
<glyph unicode="*" horiz-adv-x="818" d="M150 894L322 1056L100 1130L160 1270L358 1170L334 1408H494L470 1170L668 1274L728 1132L510 1058L682 894L564 792L416 994L264 792L150 894Z" />
<glyph unicode="+" horiz-adv-x="1087" d="M426 982H662V594H1052V388H662V0H426V388H36V594H426V982Z" />
<glyph unicode="," horiz-adv-x="506" d="M230 -284L41 -192Q114 -156 169 -109T244 -2Q182 10 140 48T98 148Q98 213 146 257T272 302Q366 302 421 235T476 72Q476 5 447 -63T362 -189T230 -284Z" />
<glyph unicode="-" horiz-adv-x="747" d="M92 500V706H654V500H92Z" />
<glyph unicode="." horiz-adv-x="430" d="M48 139Q48 206 94 252T212 298Q284 298 332 252T380 139Q380 71 332 27T212 -18Q140 -18 94 27T48 139Z" />
<glyph unicode="/" horiz-adv-x="943" d="M106 -160L620 1490H862L344 -160H106Z" />
<glyph unicode="0" horiz-adv-x="1265" d="M634 -28Q475 -28 353 46T163 270T94 648Q94 878 162 1027T353 1250T634 1324Q792 1324 913 1251T1103 1028T1172 648Q1172 420 1103 270T913 46T634 -28ZM634 188Q774 188 851 306T928 648Q928 872 851 991T634 1110Q493
1110 416 991T338 648Q338 425 415 307T634 188Z" />
<glyph unicode="1" horiz-adv-x="713" d="M348 1306H526V0H290V1024Q237 1000 186 987T84 974V1200Q152 1208 216 1232T348 1306Z" />
<glyph unicode="2" horiz-adv-x="1210" d="M120 0V222Q120 331 153 407T252 535T416 626L682 728Q769 763 810 814T852 940Q852 1015 798 1066T642 1118Q544 1118 479 1070T404 928H142Q145 1061 211 1149T388 1280T638 1324Q770 1324 875 1275T1043 1137T1106
930Q1106 830 1070 754T959 621T772 520L504 416Q427 386 392 350T356 254V216H1098V0H120Z" />
<glyph unicode="3" horiz-adv-x="1244" d="M626 -28Q523 -28 427 0T255 83T135 219T90 408H338Q342 340 379 291T479 215T626 188Q747 188 816 244T886 386Q886 442 858 482T773 544T624 566H452V752H598Q712 752 777 801T842 934Q842 1009 786 1059T618 1110Q527
1110 456 1073T364 944H116Q130 1077 196 1161T369 1284T608 1324Q749 1324 859 1278T1032 1151T1096 962Q1096 863 1042 790T882 680Q1000 640 1071 561T1142 364Q1142 249 1078 161T898 22T626 -28Z" />
<glyph unicode="4" horiz-adv-x="1190" d="M708 1312H936V490H1162V288H936V0H702V288H44V466L708 1312ZM714 962L324 466H714V962Z" />
<glyph unicode="5" horiz-adv-x="1164" d="M594 -28Q454 -28 347 20T178 162T114 388H354Q354 288 423 238T594 188Q703 188 772 258T842 432Q842 632 574 632H178L238 1298H1016V1082H428L474 1150L436 764L416 786Q464 797 530 802T644 808Q845 808 964 711T1084
432Q1084 303 1023 199T852 34T594 -28Z" />
<glyph unicode="6" horiz-adv-x="1214" d="M644 -28Q482 -28 358 56T164 289T94 626Q94 849 164 1005T361 1242T656 1324Q785 1324 884 1277T1040 1143T1102 942H850Q840 1020 795 1065T664 1110Q510 1110 420 975T330 606Q330 576 331 541T338 474Q354 597 408
667T540 766T702 796Q824 796 917 743T1063 597T1116 384Q1116 261 1056 169T890 24T644 -28ZM644 188Q738 188 805 244T872 394Q872 491 805 546T644 602Q582 602 532 576T451 503T420 394Q420 301 485 245T644 188Z" />
<glyph unicode="7" horiz-adv-x="995" d="M88 0L682 1070H48V1298H960V1072L406 0H88Z" />
<glyph unicode="8" horiz-adv-x="1293" d="M646 -28Q479 -28 356 21T166 156T98 350Q98 442 147 507T281 607T472 642Q514 642 550 635T634 616V558Q549 558 483 533T380 466T342 374Q342 316 383 275T493 211T646 188Q802 188 877 229T952 332Q952 382 916 417T814
478L444 620Q377 646 307 692T190 807T142 970Q142 1078 201 1157T373 1280T646 1324Q788 1324 902 1276T1083 1144T1150 952Q1150 877 1109 813T990 710T802 670Q764 670 732 676T658 696V764Q724 764 780 785T871 846T906 936Q906 990 873 1028T782 1088T646
1110Q574 1110 515 1091T421 1037T386 960Q386 910 420 879T518 822L900 674Q1043 619 1119 546T1196 344Q1196 237 1132 153T944 20T646 -28Z" />
<glyph unicode="9" horiz-adv-x="1220" d="M594 -28Q460 -28 353 24T183 170T120 384H366Q370 294 431 241T586 188Q695 188 762 250T859 426T890 690Q890 720 889 748T882 808Q863 698 810 631T682 533T518 502Q398 502 305 554T159 699T106 912Q106 1037 165
1129T331 1272T574 1324Q690 1324 790 1277T966 1144T1083 937T1126 670Q1126 457 1067 301T890 58T594 -28ZM576 696Q638 696 689 722T771 794T802 900Q802 996 735 1052T574 1108Q481 1108 416 1052T350 900Q350 804 416 750T576 696Z" />
<glyph unicode=":" horiz-adv-x="539" d="M102 173Q102 240 148 286T266 332Q338 332 386 286T434 173Q434 105 386 61T266 16Q194 16 148 61T102 173ZM102 769Q102 836 148 882T266 928Q338 928 386 882T434 769Q434 701 386 657T266 612Q194 612 148 657T102 769Z" />
<glyph unicode=";" horiz-adv-x="616" d="M290 -284L101 -192Q174 -156 229 -109T304 -2Q242 10 200 48T158 148Q158 213 206 257T332 302Q426 302 481 235T536 72Q536 5 507 -63T422 -189T290 -284ZM170 769Q170 836 216 882T334 928Q406 928 454 882T502 769Q502
701 454 657T334 612Q262 612 216 657T170 769Z" />
<glyph unicode="&lt;" horiz-adv-x="1004" d="M758 1234L914 1054L260 594V694L914 236L758 56L90 538V750L758 1234Z" />
<glyph unicode="=" horiz-adv-x="1012" d="M158 396H854V192H158V396ZM158 816H854V612H158V816Z" />
<glyph unicode="&gt;" horiz-adv-x="1004" d="M246 56L90 236L742 694V594L90 1054L246 1234L914 750V538L246 56Z" />
<glyph unicode="?" horiz-adv-x="1034" d="M350 388V468Q350 555 370 611T434 705T550 780Q613 812 648 839T696 896T710 964Q710 1027 659 1068T520 1110Q415 1110 359 1064T294 940H48Q59 1114 176 1219T510 1324Q653 1324 755 1276T914 1147T970 962Q970 858
918 786T754 658Q689 625 653 597T601 534T586 446V388H350ZM474 -28Q401 -28 356 17T310 128Q310 195 355 240T474 286Q546 286 594 241T642 128Q642 62 594 17T474 -28Z" />
<glyph unicode="@" horiz-adv-x="2053" d="M1138 -434Q910 -434 726 -369T409 -187T205 88T134 435Q134 628 207 790T414 1072T724 1258T1109 1324Q1302 1324 1458 1267T1724 1109T1893 873T1952 580Q1952 445 1911 340T1801 162T1645 52T1466 14Q1376 14 1315
49T1236 146L1224 178Q1190 110 1132 62T977 14Q884 14 806 61T682 194T636 391Q636 492 674 580T779 736T933 841T1117 880Q1251 880 1328 801T1406 562V300Q1406 246 1424 222T1475 198Q1522 198 1578 239T1674 364T1714 576Q1714 731 1645 852T1443 1042T1119
1112Q953 1112 816 1059T580 909T426 685T372 405Q372 216 461 70T721 -159T1138 -242V-434ZM1017 204Q1087 204 1132 245T1218 360V560Q1218 622 1195 660T1111 698Q1052 698 991 660T889 554T848 394Q848 298 896 251T1017 204Z" />
<glyph unicode="A" horiz-adv-x="1251" d="M44 0L486 1298H782L1206 0H958L868 280H386L294 0H44ZM446 458H812L630 1016L446 458Z" />
<glyph unicode="B" horiz-adv-x="1296" d="M186 0V1298H710Q860 1298 959 1252T1107 1127T1156 954Q1156 844 1095 766T922 656Q995 641 1053 602T1144 501T1178 360Q1178 299 1156 236T1082 119T940 33T712 0H186ZM422 206H706Q819 206 871 251T924 374Q924 451
870 497T706 544H422V206ZM422 1094V750H700Q805 750 859 796T914 924Q914 1001 861 1047T702 1094H422Z" />
<glyph unicode="C" horiz-adv-x="1267" d="M658 -28Q487 -28 361 53T164 287T94 652Q94 873 166 1022T366 1247T658 1324Q885 1324 1012 1214T1176 928L924 882Q893 984 825 1047T658 1110Q571 1110 501 1060T389 908T348 652Q348 508 384 404T490 244T658 188Q784
188 854 255T924 428H1176Q1176 283 1114 181T935 26T658 -28Z" />
<glyph unicode="D" horiz-adv-x="1373" d="M186 1298H606Q805 1298 953 1219T1185 994T1268 648Q1268 451 1185 306T954 80T606 0H186V1298ZM422 1084V212H606Q732 212 823 269T964 424T1014 648Q1014 776 965 873T824 1027T606 1084H422Z" />
<glyph unicode="E" horiz-adv-x="1173" d="M184 0V1298H1018V1094H420V752H982V548H420V206H1018V0H184Z" />
<glyph unicode="F" horiz-adv-x="1093" d="M186 0V1298H1004V1094H422V752H954V550H422V0H186Z" />
<glyph unicode="G" horiz-adv-x="1354" d="M660 -28Q501 -28 373 56T169 290T94 642Q94 801 140 927T270 1141T465 1277T708 1324Q890 1324 1013 1245T1206 996L964 940Q913 1023 847 1066T696 1110Q601 1110 522 1054T395 892T348 642Q348 506 389 404T506 245T680
188Q764 188 830 225T935 333T974 502H1026Q1026 340 988 221T868 37T660 -28ZM1008 0L974 286V510L682 516V666H1200V0H1008Z" />
<glyph unicode="H" horiz-adv-x="1411" d="M186 1298H422V756H988V1298H1224V0H988V550H422V0H186V1298Z" />
<glyph unicode="I" horiz-adv-x="609" d="M186 0V1298H422V0H186Z" />
<glyph unicode="J" horiz-adv-x="887" d="M32 54V290Q112 244 188 223T330 202Q416 202 455 252T494 404V1298H732V404Q732 247 683 152T548 15T350 -28Q262 -28 182 -5T32 54Z" />
<glyph unicode="K" horiz-adv-x="1308" d="M936 1298H1260L404 422V744L936 1298ZM648 762L1296 0H992L484 608L648 762ZM186 1298H424V0H186V1298Z" />
<glyph unicode="L" horiz-adv-x="988" d="M422 1298V206H956V0H186V1298H422Z" />
<glyph unicode="M" horiz-adv-x="1749" d="M186 1298H524L890 504H870L1236 1298H1562V0H1324V1026H1360L956 142H802L400 1022H422V0H186V1298Z" />
<glyph unicode="N" horiz-adv-x="1434" d="M182 1298H440L1030 372H1012V1298H1248V0H1008L380 982H418V0H182V1298Z" />
<glyph unicode="O" horiz-adv-x="1365" d="M682 -28Q509 -28 377 48T169 275T94 650Q94 878 169 1027T376 1250T682 1324Q856 1324 989 1249T1197 1023T1272 650Q1272 423 1197 273T989 47T682 -28ZM682 186Q841 186 934 306T1028 652Q1028 869 935 990T682 1112Q526
1112 432 991T338 650Q338 425 432 306T682 186Z" />
<glyph unicode="P" horiz-adv-x="1161" d="M180 0V1298H638Q857 1298 979 1190T1102 884Q1102 688 980 580T638 472H418V0H180ZM418 678H638Q747 678 803 736T860 884Q860 976 804 1035T638 1094H418V678Z" />
<glyph unicode="Q" horiz-adv-x="1372" d="M682 -28Q509 -28 377 48T169 275T94 650Q94 878 169 1027T376 1250T682 1324Q856 1324 989 1249T1197 1023T1272 650Q1272 423 1197 273T989 47T682 -28ZM1080 -360Q981 -360 897 -307T750 -158L616 44L804 132L920
-48Q949 -90 986 -107T1062 -126Q1112 -126 1158 -114T1256 -80V-324Q1209 -343 1167 -351T1080 -360ZM682 186Q841 186 934 306T1028 652Q1028 869 935 990T682 1112Q526 1112 432 991T338 650Q338 425 432 306T682 186Z" />
<glyph unicode="R" horiz-adv-x="1287" d="M186 0V1298H666Q899 1298 1023 1189T1148 900Q1148 723 1024 615T666 506H422V0H186ZM888 0L544 608H796L1196 0H888ZM422 664H642Q773 664 839 723T906 878Q906 975 845 1034T666 1094H422V664Z" />
<glyph unicode="S" horiz-adv-x="1275" d="M638 -28Q504 -28 390 19T206 162T130 406H362Q362 332 399 283T499 211T636 188Q708 188 764 207T853 261T886 346Q886 411 847 448T720 516L464 618Q314 677 234 755T154 970Q154 1127 279 1225T628 1324Q846 1324
965 1222T1100 940H868Q855 1017 798 1063T628 1110Q527 1110 470 1069T412 964Q412 910 448 879T562 818L846 708Q990 652 1067 567T1144 354Q1144 237 1085 151T914 19T638 -28Z" />
<glyph unicode="T" horiz-adv-x="1063" d="M12 1094V1298H1052V1094H597L650 1148V0H414V1148L467 1094H12Z" />
<glyph unicode="U" horiz-adv-x="1380" d="M166 1298H402V490Q402 330 483 259T692 188Q820 188 901 259T982 490V1298H1218V490Q1218 326 1155 210T975 33T692 -28Q527 -28 410 33T229 210T166 490V1298Z" />
<glyph unicode="V" horiz-adv-x="1205" d="M590 258L922 1298H1170L724 0H476L36 1298H286L614 258H590Z" />
<glyph unicode="W" horiz-adv-x="1893" d="M20 1298H284L598 208H538L848 1212H1008L1330 224H1276L1606 1298H1872L1426 0H1178L924 766H946L692 0H444L20 1298Z" />
<glyph unicode="X" horiz-adv-x="1367" d="M68 0L526 646L66 1298H356L684 830L968 1298H1254L816 650L1298 0H1002L660 462L354 0H68Z" />
<glyph unicode="Y" horiz-adv-x="1173" d="M14 1298H294L604 740H558L880 1298H1158L696 536V0H460V536L14 1298Z" />
<glyph unicode="Z" horiz-adv-x="1257" d="M146 0V204L900 1166V1080L146 1082V1298H1128V1096L420 188L414 218L1128 216V0H146Z" />
<glyph unicode="[" horiz-adv-x="704" d="M186 -282V1580H680V1366H422V-68H680V-282H186Z" />
<glyph unicode="\" horiz-adv-x="943" d="M82 1490L596 -160H838L320 1490H82Z" />
<glyph unicode="]" horiz-adv-x="671" d="M486 -282V1580H-8V1366H250V-68H-8V-282H486Z" />
<glyph unicode="^" horiz-adv-x="1054" d="M40 436L436 1206H626L1022 436H762L486 1026H576L300 436H40Z" />
<glyph unicode="_" horiz-adv-x="1536" d="M110 0V206H1428V0H110Z" />
<glyph unicode="`" horiz-adv-x="720" d="M512 1117L94 1454L252 1582L626 1209L512 1117Z" />
<glyph unicode="a" horiz-adv-x="1170" d="M804 0L774 236V626Q774 728 733 777T592 826Q535 826 494 810T429 761T406 684H148Q148 794 201 863T353 965T592 998Q718 998 812 958T958 833T1010 618V0H804ZM486 -28Q361 -28 278 15T152 130T110 284Q110 376 158
438T296 532T506 564Q585 564 655 552T796 520V382Q741 400 676 410T554 420Q470 420 416 389T362 284Q362 230 406 191T546 152Q619 152 670 184T747 264T774 360H830Q830 255 792 167T677 25T486 -28Z" />
<glyph unicode="b" horiz-adv-x="1228" d="M682 -28Q591 -28 516 23T395 175T350 430H422Q422 357 455 302T540 217T648 186Q717 186 771 224T856 330T888 490Q888 579 857 645T772 749T646 786Q587 786 536 758T454 676T422 546H350Q350 693 392 794T513 946T700
998Q818 998 914 936T1068 759T1126 490Q1126 334 1067 218T906 37T682 -28ZM186 0V1372H422V240L340 0H186Z" />
<glyph unicode="c" horiz-adv-x="1059" d="M554 -28Q432 -28 328 35T159 214T94 486Q94 651 158 765T327 938T554 998Q649 998 722 968T845 886T925 772T962 644L724 638Q708 701 665 743T552 786Q496 786 446 755T364 658T332 486Q332 386 361 319T441 219T552
186Q642 186 683 229T724 346H962Q962 243 915 158T778 23T554 -28Z" />
<glyph unicode="d" horiz-adv-x="1228" d="M544 -28Q422 -28 322 36T162 217T102 490Q102 644 159 758T313 935T528 998Q636 998 714 947T835 794T878 546H804Q804 622 773 675T692 757T582 786Q512 786 457 749T371 646T340 490Q340 399 371 331T457 224T580
186Q636 186 687 216T771 302T804 430H878Q878 277 833 176T711 23T544 -28ZM848 0L804 240V1372H1042V0H848Z" />
<glyph unicode="e" horiz-adv-x="1060" d="M548 -28Q424 -28 321 36T156 216T94 486Q94 646 155 761T320 937T548 998Q664 998 748 952T885 826T955 646T956 440H282V568H789L743 538Q746 585 739 633T710 721T651 785T552 810Q480 810 430 774T354 676T328 536V442Q328
360 352 297T426 198T548 162Q617 162 664 194T724 290H962Q947 196 892 125T749 13T548 -28Z" />
<glyph unicode="f" horiz-adv-x="735" d="M242 0V1088Q242 1193 283 1259T391 1357T538 1388Q586 1388 638 1381T740 1364L694 1182Q669 1191 643 1196T590 1202Q562 1202 537 1192T496 1155T480 1084V0H242ZM98 814V970H658V814H98Z" />
<glyph unicode="g" horiz-adv-x="1164" d="M560 -502Q393 -502 275 -456T93 -336T30 -174Q30 -70 105 -14T294 42L466 -22Q369 -22 316 -59T262 -162Q262 -231 341 -272T560 -314Q661 -314 735 -284T849 -206T890 -104Q890 -68 866 -45T792 -22H466Q368 -22 288
9T160 95T112 214Q112 275 146 319T238 388T370 412L430 334Q401 334 375 323T331 289T314 234Q314 194 348 169T466 144H792Q947 144 1035 88T1124 -88Q1124 -193 1055 -288T860 -442T560 -502ZM572 300Q457 300 362 343T210 465T152 648Q152 755 209 833T362
955T572 998Q684 998 779 955T932 834T990 648Q990 543 932 465T779 344T572 300ZM574 464Q666 464 712 517T758 648Q758 732 712 783T572 834Q482 834 434 783T386 648Q386 570 434 517T574 464ZM916 842L808 904Q808 991 848 1056T956 1158T1106 1194L1094 968Q1007
968 962 938T916 842Z" />
<glyph unicode="h" horiz-adv-x="1246" d="M852 0V568Q852 676 800 731T664 786Q593 786 539 747T453 629T422 434H344Q344 623 391 748T524 936T726 998Q846 998 926 944T1047 794T1088 568V0H852ZM186 0V1372H422V0H186Z" />
<glyph unicode="i" horiz-adv-x="656" d="M324 1148Q255 1148 217 1184T178 1286Q178 1348 216 1386T324 1424Q392 1424 431 1386T470 1286Q470 1221 431 1185T324 1148ZM206 0V974H442V0H206Z" />
<glyph unicode="j" horiz-adv-x="670" d="M336 1148Q269 1148 230 1184T190 1286Q190 1348 229 1386T336 1424Q404 1424 443 1386T482 1286Q482 1221 443 1185T336 1148ZM128 -502Q50 -502 -16 -485T-152 -440L-148 -236Q-97 -261 -41 -278T70 -296Q143 -296 181
-254T220 -112V974H456V-116Q456 -324 370 -413T128 -502Z" />
<glyph unicode="k" horiz-adv-x="1183" d="M186 0V1372H422V0H186ZM390 602L806 970H1126L390 358V602ZM862 0L428 618L652 672L1150 0H862Z" />
<glyph unicode="l" horiz-adv-x="609" d="M186 0V1372H422V0H186Z" />
<glyph unicode="m" horiz-adv-x="1898" d="M1504 0V568Q1504 676 1453 731T1316 786Q1209 786 1149 700T1088 440H990Q990 593 1018 699T1099 871T1223 967T1380 998Q1500 998 1580 944T1701 794T1742 568V0H1504ZM186 0V970H392L418 804Q466 901 545 949T726
998Q846 998 926 944T1047 794T1088 568V0H852V568Q852 676 800 731T664 786Q593 786 539 747T453 629T422 434V0H186Z" />
<glyph unicode="n" horiz-adv-x="1246" d="M852 0V568Q852 676 800 731T664 786Q593 786 539 747T453 629T422 434H344Q344 623 391 748T524 936T726 998Q846 998 926 944T1047 794T1088 568V0H852ZM186 0V970H392L422 778V0H186Z" />
<glyph unicode="o" horiz-adv-x="1132" d="M568 -28Q435 -28 328 29T157 199T94 484Q94 658 157 772T327 942T568 998Q699 998 805 942T975 772T1038 484Q1038 313 975 200T806 29T568 -28ZM560 178Q631 178 685 212T770 315T802 484Q802 638 742 716T576 794Q505
794 450 760T364 656T332 484Q332 332 393 255T560 178Z" />
<glyph unicode="p" horiz-adv-x="1220" d="M672 -28Q565 -28 490 18T376 157T336 392H422Q422 327 452 281T532 211T638 186Q697 186 754 218T850 317T888 486Q888 579 856 646T769 749T642 786Q582 786 532 759T452 681T422 556H336Q336 709 383 806T510 951T682
998Q797 998 898 937T1063 762T1126 486Q1126 324 1062 209T895 33T672 -28ZM186 -474V970H380L422 730V-474H186Z" />
<glyph unicode="q" horiz-adv-x="1220" d="M548 -28Q429 -28 326 33T158 209T94 486Q94 647 157 761T321 937T536 998Q630 998 709 951T836 807T884 556H796Q796 629 767 680T688 759T578 786Q507 786 452 750T364 646T332 486Q332 384 369 318T465 219T582 186Q638
186 686 210T765 281T796 392H842Q842 268 813 174T720 26T548 -28ZM796 -474V730L880 970H1032V-474H796Z" />
<glyph unicode="r" horiz-adv-x="785" d="M186 0V974H422V0H186ZM364 426Q364 618 407 742T522 927T684 988Q708 988 729 985T772 976L768 740Q742 746 712 750T658 754Q580 754 528 717T449 607T422 426H364Z" />
<glyph unicode="s" horiz-adv-x="1055" d="M548 -28Q408 -28 308 10T153 121T98 296H316Q319 224 373 191T520 158Q571 158 610 173T672 215T694 272Q694 313 664 336T570 380L358 456Q244 497 183 564T122 724Q122 847 233 922T532 998Q718 998 819 917T924 710H702Q698
758 657 786T532 814Q457 814 415 784T372 712Q372 643 490 608L720 522Q832 484 894 424T956 272Q956 195 905 127T761 15T548 -28Z" />
<glyph unicode="t" horiz-adv-x="789" d="M514 -28Q428 -28 357 4T243 102T200 270V1228H436V278Q436 158 550 158Q585 158 620 166T700 190L734 24Q678 2 625 -13T514 -28ZM64 814V970H700V814H64Z" />
<glyph unicode="u" horiz-adv-x="1254" d="M832 974H1068V0H832V974ZM166 974H402V378Q402 284 449 236T578 188Q648 188 705 224T797 332T832 510H896Q896 332 850 215T723 40T536 -18Q433 -18 349 19T216 137T166 354V974Z" />
<glyph unicode="v" horiz-adv-x="1038" d="M24 970H296L528 202H510L742 970H1014L652 0H386L24 970Z" />
<glyph unicode="w" horiz-adv-x="1516" d="M24 970H270L480 234H456L654 918H868L1066 232H1042L1252 970H1488L1168 0H936L738 644H774L580 0H346L24 970Z" />
<glyph unicode="x" horiz-adv-x="1107" d="M32 0L410 484L32 974H322L560 662L786 974H1074L698 484L1074 0H786L544 312L322 0H32Z" />
<glyph unicode="y" horiz-adv-x="1007" d="M38 970H306L564 206H522L744 970H984L612 -176Q555 -348 472 -425T268 -502Q199 -502 134 -487T0 -438V-230Q55 -264 106 -280T210 -296Q258 -296 293 -271T354 -200T398 -94L428 0L38 970Z" />
<glyph unicode="z" horiz-adv-x="990" d="M114 0V192L618 780H114V970H878V780L390 192H878V0H114Z" />
<glyph unicode="{" horiz-adv-x="782" d="M774 -312Q593 -312 479 -248T311 -69T258 192V374Q258 457 245 488T192 520H142V758H192Q231 758 244 789T258 904V1088Q258 1235 311 1347T478 1524T774 1588V1376Q627 1376 560 1305T492 1084V892Q492 796 455 735T360
644V634Q417 605 454 544T492 386V194Q492 44 559 -27T774 -98V-312Z" />
<glyph unicode="|" horiz-adv-x="609" d="M186 -244V1540H422V-244H186Z" />
<glyph unicode="}" horiz-adv-x="782" d="M8 -312Q189 -312 303 -248T471 -69T524 192V374Q524 457 537 488T590 520H640V758H590Q551 758 538 789T524 904V1088Q524 1235 471 1347T304 1524T8 1588V1376Q155 1376 222 1305T290 1084V892Q290 796 327 735T422
644V634Q365 605 328 544T290 386V194Q290 44 223 -27T8 -98V-312Z" />
<glyph unicode="~" horiz-adv-x="1139" d="M240 408L114 476Q149 606 210 681T370 756Q414 756 463 743T586 700Q659 672 698 660T768 648Q807 648 840 676T898 758L1024 678Q984 551 914 488T750 424Q717 424 669 437T546 480Q473 506 436 518T368 530Q329 530
298 502T240 408Z" />
<glyph unicode="&#xa0;" horiz-adv-x="506" />
<glyph unicode="&#xa1;" horiz-adv-x="586" d="M198 866L172 -22H428L400 866H198ZM301 1322Q228 1322 182 1278T136 1164Q136 1098 182 1052T301 1006Q372 1006 420 1052T468 1164Q468 1233 420 1277T301 1322Z" />
<glyph unicode="&#xa2;" horiz-adv-x="1057" d="M452 -216V42H646V-216H452ZM452 940V1174H646V940H452ZM554 -28Q432 -28 328 35T159 214T94 486Q94 651 158 765T327 938T554 998Q649 998 722 968T845 886T925 772T962 644L724 638Q708 701 665 743T552 786Q496
786 446 755T364 658T332 486Q332 386 361 319T441 219T552 186Q642 186 683 229T724 346H962Q962 243 915 158T778 23T554 -28Z" />
<glyph unicode="&#xa3;" horiz-adv-x="1203" d="M108 144V212Q182 212 212 255T242 386V888Q242 1032 293 1129T435 1275T650 1324Q815 1324 912 1236T1034 974H802Q793 1040 753 1075T650 1110Q572 1110 525 1056T478 888V402Q478 270 398 207T108 144ZM44 0V212H678Q777
212 820 250T874 368H1130Q1126 195 1025 98T680 0H44ZM76 562V720H820V562H76Z" />
<glyph unicode="&#xa4;" horiz-adv-x="1200" d="M600 216Q483 216 387 273T234 426T176 640Q176 757 233 853T387 1006T600 1064Q718 1064 813 1007T965 853T1022 640Q1022 523 966 427T814 273T600 216ZM600 426Q660 426 708 455T785 532T814 640Q814 700 785
748T708 825T600 854Q541 854 492 826T415 749T386 640Q386 581 414 533T492 455T600 426ZM848 788L748 888L978 1118L1078 1020L848 788ZM340 800L122 1018L220 1118L438 900L340 800ZM860 480L1078 262L980 162L762 380L860 480ZM340 480L438 380L220 162L122
262L340 480Z" />
<glyph unicode="&#xa5;" horiz-adv-x="1173" d="M460 0V536L14 1298H294L604 740H558L880 1298H1158L696 536V0H460ZM232 170V302H930V170H232ZM232 384V516H930V384H232Z" />
<glyph unicode="&#xa6;" horiz-adv-x="609" d="M186 750V1540H422V750H186ZM186 -244V545H422V-244H186Z" />
<glyph unicode="&#xa7;" horiz-adv-x="1200" d="M629 472Q681 472 720 487T781 528T804 588Q804 627 773 650T679 694L468 770Q355 809 294 876T232 1035Q232 1161 343 1236T637 1312Q831 1312 930 1230T1033 1023H812Q808 1072 765 1100T647 1128Q566 1128 524
1097T482 1024Q482 959 600 922L830 836Q942 797 1003 737T1065 590Q1065 510 1014 441T870 329T658 286L629 472ZM569 738Q494 738 452 706T409 630Q409 565 526 527L756 442Q869 403 930 343T992 195Q992 116 943 47T798 -65T566 -108Q442 -108 344 -70T190 41T135
216H352Q354 144 409 111T547 78Q636 78 683 111T731 193Q731 232 701 255T606 300L395 376Q280 415 220 483T159 644Q159 774 270 846T569 919V738Z" />
<glyph unicode="&#xa8;" horiz-adv-x="854" d="M618 1143Q560 1143 520 1180T479 1275Q479 1332 519 1370T618 1409Q680 1409 720 1371T760 1275Q760 1218 720 1181T618 1143ZM234 1143Q173 1143 134 1180T94 1273Q94 1331 133 1369T234 1407Q296 1407 336 1369T376
1273Q376 1218 336 1181T234 1143Z" />
<glyph unicode="&#xa9;" horiz-adv-x="1421" d="M711 -13Q574 -13 454 39T242 182T100 393T48 650Q48 787 99 907T242 1118T453 1261T711 1312Q847 1312 967 1261T1179 1119T1321 907T1373 650Q1373 513 1322 393T1179 182T968 39T711 -13ZM711 105Q824 105 922
148T1095 265T1212 439T1255 650Q1255 763 1213 861T1095 1035T922 1152T711 1194Q599 1194 500 1152T326 1035T209 862T166 650Q166 538 208 439T326 266T500 148T711 105ZM709 240Q605 240 529 289T410 431T367 653Q367 785 411 876T533 1013T709 1060Q846 1060
923 993T1023 820L872 792Q853 855 811 893T709 932Q656 932 613 901T545 808T520 653Q520 565 542 502T606 404T709 370Q786 370 829 411T872 516H1022Q1022 428 985 367T877 273T709 240Z" />
<glyph unicode="&#xaa;" horiz-adv-x="1170" d="M804 0L774 236V626Q774 728 733 777T592 826Q535 826 494 810T429 761T406 684H148Q148 794 201 863T353 965T592 998Q718 998 812 958T958 833T1010 618V0H804ZM486 -28Q361 -28 278 15T152 130T110 284Q110 376
158 438T296 532T506 564Q585 564 655 552T796 520V382Q741 400 676 410T554 420Q470 420 416 389T362 284Q362 230 406 191T546 152Q619 152 670 184T747 264T774 360H830Q830 255 792 167T677 25T486 -28Z" />
<glyph unicode="&#xab;" horiz-adv-x="1245" d="M315 509L666 851L508 971L94 540L508 108L666 228L315 571V509ZM800 509L1151 851L993 971L579 540L993 108L1151 228L800 571V509Z" />
<glyph unicode="&#xac;" horiz-adv-x="1200" d="M219 675H929V298H773V549L821 497H219V675Z" />
<glyph unicode="&#xad;" horiz-adv-x="1200" d="M92 500V706H654V500H92Z" />
<glyph unicode="&#xae;" horiz-adv-x="1421" d="M711 -13Q574 -13 454 39T242 182T100 393T48 650Q48 787 99 907T242 1118T454 1261T710 1312Q847 1312 967 1261T1179 1119T1321 907T1373 650Q1373 513 1322 393T1179 182T968 39T711 -13ZM711 105Q824 105 922
148T1095 265T1212 439T1255 650Q1255 763 1213 861T1095 1035T922 1152T711 1194Q599 1194 500 1152T326 1035T209 862T166 650Q166 538 208 439T326 266T499 148T711 105ZM458 291V1030H730Q862 1030 933 968T1005 804Q1005 703 934 642T730 580H591V291H458ZM858
291L662 637H803L1031 291H858ZM591 669H717Q792 669 829 703T867 792Q867 847 833 881T730 916H591V669Z" />
<glyph unicode="&#xaf;" horiz-adv-x="880" d="M95 1361H786V1168H95V1361Z" />
<glyph unicode="&#xb0;" horiz-adv-x="777" d="M389 970Q306 970 238 1011T129 1120T88 1271Q88 1355 128 1422T237 1531T389 1572Q472 1572 540 1531T648 1423T689 1272Q689 1188 649 1120T540 1011T389 970ZM389 1127Q448 1127 490 1169T532 1271Q532 1330 490
1372T389 1414Q329 1414 287 1372T244 1271Q244 1212 286 1170T389 1127Z" />
<glyph unicode="&#xb1;" horiz-adv-x="1012" d="M414 1098H598V792H876V640H598V336H414V640H136V792H414V1098ZM152 178H862V0H152V178Z" />
<glyph unicode="&#xb2;" horiz-adv-x="880" d="M143 600V734Q143 832 187 887T321 977L481 1038Q534 1059 559 1090T584 1167Q584 1212 552 1243T457 1274Q399 1274 360 1245T314 1159H156Q158 1239 197 1292T304 1371T455 1397Q534 1397 597 1368T699 1285T737
1161Q737 1070 688 1011T537 913L374 851Q328 832 307 811T285 753V730H732V600H143Z" />
<glyph unicode="&#xb3;" horiz-adv-x="880" d="M447 583Q366 583 292 613T170 701T123 846H274Q278 785 325 749T447 713Q521 713 562 747T604 832Q604 884 566 912T446 941H342V1053H431Q499 1053 538 1082T578 1162Q578 1208 544 1238T442 1269Q387 1269 344
1247T290 1169H139Q152 1289 234 1343T437 1397Q564 1397 647 1337T730 1180Q730 1120 698 1076T602 1009Q672 985 714 938T757 820Q757 716 673 650T447 583Z" />
<glyph unicode="&#xb4;" horiz-adv-x="720" d="M207 1117L94 1209L468 1582L626 1454L207 1117Z" />
<glyph unicode="&#xb5;" horiz-adv-x="1254" d="M536 -18Q433 -18 349 19T216 137T166 354V974H402V378Q402 284 449 236T578 188Q648 188 705 224T797 332T832 510H896Q896 332 850 215T723 40T536 -18ZM166 -398V974H402V-398H166ZM832 0V974H1068V0H832Z" />
<glyph unicode="&#xb6;" horiz-adv-x="1252" d="M588 472Q369 472 247 580T124 885Q124 1082 246 1190T588 1298H1040V1086H716V472H588ZM595 -252V1298H770V-252H595ZM898 -252V1298H1073V-252H898Z" />
<glyph unicode="&#xb7;" horiz-adv-x="430" d="M48 533Q48 600 94 646T212 692Q284 692 332 646T380 533Q380 465 332 421T212 376Q140 376 94 421T48 533Z" />
<glyph unicode="&#xb8;" horiz-adv-x="628" d="M94 -367L127 -284Q195 -317 247 -321T331 -308T366 -258Q368 -230 346 -209T283 -170T187 -141L265 79L369 64L298 -135L267 -75Q364 -90 424 -120T510 -189T534 -272Q530 -330 485 -365T371 -413T230 -415T94 -367Z" />
<glyph unicode="&#xb9;" horiz-adv-x="880" d="M219 600V710H405L368 673V1261L406 1235Q362 1211 323 1200T244 1186V1323Q284 1327 323 1342T402 1387H510V673L472 710H660V600H219Z" />
<glyph unicode="&#xba;" horiz-adv-x="1132" d="M568 -28Q435 -28 328 29T157 199T94 484Q94 658 157 772T327 942T568 998Q699 998 805 942T975 772T1038 484Q1038 313 975 200T806 29T568 -28ZM560 178Q631 178 685 212T770 315T802 484Q802 638 742 716T576
794Q505 794 450 760T364 656T332 484Q332 332 393 255T560 178Z" />
<glyph unicode="&#xbb;" horiz-adv-x="1245" d="M930 509L579 851L737 971L1151 540L737 108L579 228L930 571V509ZM446 509L95 851L253 971L667 540L253 108L95 228L446 571V509Z" />
<glyph unicode="&#xbc;" horiz-adv-x="2000" d="M1604 0V211L1651 173H1216V281L1607 790H1745V258L1715 281H1865V173H1716L1745 211V0H1604ZM180 600V710H366L329 673V1261L366 1235Q323 1211 284 1200T205 1186V1323Q244 1327 283 1342T362 1387H471V673L433
710H620V600H180ZM1611 236V642L1653 638L1350 247L1345 281H1657L1611 236ZM361 -22L1454 1358H1642L546 -22H361Z" />
<glyph unicode="&#xbd;" horiz-adv-x="2000" d="M1294 0V134Q1294 232 1338 287T1472 377L1632 438Q1685 459 1710 490T1735 567Q1735 612 1703 643T1608 674Q1550 674 1511 645T1465 559H1307Q1309 639 1349 692T1455 771T1606 797Q1685 797 1748 768T1850 685T1888
561Q1888 470 1839 411T1688 313L1526 251Q1479 232 1458 211T1436 153V130H1883V0H1294ZM213 600V710H399L362 673V1261L399 1235Q356 1211 317 1200T238 1186V1323Q277 1327 316 1342T396 1387H504V673L466 710H654V600H213ZM354 -22L1447 1358H1636L540 -22H354Z"
/>
<glyph unicode="&#xbe;" horiz-adv-x="2000" d="M463 583Q381 583 307 613T186 701T139 846H290Q294 785 341 749T463 713Q537 713 578 747T620 832Q620 884 582 912T462 941H357V1053H447Q515 1053 554 1082T594 1162Q594 1208 560 1238T457 1269Q403 1269 360
1247T306 1169H155Q168 1289 250 1343T453 1397Q579 1397 662 1337T746 1180Q746 1120 714 1076T618 1009Q688 985 730 938T773 820Q773 716 689 650T463 583ZM1610 0V211L1657 173H1221V281L1613 790H1750V258L1721 281H1871V173H1722L1750 211V0H1610ZM1591 236V642L1632
638L1329 247L1324 281H1636L1591 236ZM400 -22L1493 1358H1681L585 -22H400Z" />
<glyph unicode="&#xbf;" horiz-adv-x="1034" d="M667 906V826Q667 739 647 683T583 589T467 514Q404 482 369 455T321 398T307 330Q307 267 358 226T497 184Q602 184 658 230T723 354H969Q958 180 841 75T507 -30Q364 -30 262 18T103 147T47 332Q47 436 99 508T263
636Q328 669 364 697T416 760T431 848V906H667ZM543 1322Q616 1322 661 1277T707 1166Q707 1099 662 1054T543 1008Q471 1008 423 1053T375 1166Q375 1232 423 1277T543 1322Z" />
<glyph unicode="&#xc0;" horiz-adv-x="1251" d="M44 0L486 1298H782L1206 0H958L868 280H386L294 0H44ZM446 458H812L630 1016L446 458ZM788 1443L370 1780L528 1908L902 1535L788 1443Z" />
<glyph unicode="&#xc1;" horiz-adv-x="1251" d="M44 0L486 1298H782L1206 0H958L868 280H386L294 0H44ZM446 458H812L630 1016L446 458ZM573 1440L460 1532L834 1905L992 1777L573 1440Z" />
<glyph unicode="&#xc2;" horiz-adv-x="1251" d="M44 0L486 1298H782L1206 0H958L868 280H386L294 0H44ZM446 458H812L630 1016L446 458ZM420 1427L281 1537L637 1842L994 1537L855 1427L595 1660H679L420 1427Z" />
<glyph unicode="&#xc3;" horiz-adv-x="1251" d="M44 0L486 1298H782L1206 0H958L868 280H386L294 0H44ZM446 458H812L630 1016L446 458ZM386 1449L292 1506Q316 1627 372 1694T506 1762Q535 1762 566 1751T652 1712Q703 1687 728 1676T778 1664Q807 1664 835 1687T884
1762L984 1696Q970 1624 938 1569T866 1481T784 1449Q748 1449 713 1463T620 1505Q572 1532 550 1541T506 1550Q473 1550 444 1529T386 1449Z" />
<glyph unicode="&#xc4;" horiz-adv-x="1251" d="M44 0L486 1298H782L1206 0H958L868 280H386L294 0H44ZM446 458H812L630 1016L446 458ZM829 1469Q771 1469 731 1506T690 1601Q690 1658 730 1696T829 1735Q891 1735 931 1697T971 1601Q971 1544 931 1507T829 1469ZM445
1469Q384 1469 345 1506T305 1599Q305 1657 344 1695T445 1733Q507 1733 547 1695T587 1599Q587 1544 547 1507T445 1469Z" />
<glyph unicode="&#xc5;" horiz-adv-x="1251" d="M44 0L486 1298H782L1206 0H958L868 280H386L294 0H44ZM446 458H812L630 1016L446 458ZM639 1402Q574 1402 520 1434T434 1521T401 1640Q401 1706 433 1759T520 1845T639 1878Q704 1878 758 1846T844 1760T877 1640Q877
1575 845 1521T758 1435T639 1402ZM639 1560Q673 1560 696 1583T719 1640Q719 1674 696 1697T639 1721Q606 1721 582 1698T558 1640Q558 1607 582 1584T639 1560Z" />
<glyph unicode="&#xc6;" horiz-adv-x="1766" d="M1611 1298V1094H1021L1061 1130V658L1021 748H1574V544H1021L1061 610V101L1021 207H1611V0H825V362L865 280H346L460 357L317 0H72L591 1298H1611ZM866 458L825 392L824 1127L865 1094H697L790 1183L477 401L411
458H866Z" />
<glyph unicode="&#xc7;" horiz-adv-x="1267" d="M658 -28Q487 -28 361 53T164 287T94 652Q94 873 166 1022T366 1247T658 1324Q885 1324 1012 1214T1176 928L924 882Q893 984 825 1047T658 1110Q571 1110 501 1060T389 908T348 652Q348 508 384 404T490 244T658
188Q784 188 854 255T924 428H1176Q1176 283 1114 181T935 26T658 -28ZM468 -367L501 -284Q569 -317 621 -321T705 -308T740 -258Q742 -230 720 -209T657 -170T561 -141L639 79L743 64L672 -135L641 -75Q738 -90 798 -120T884 -189T908 -272Q904 -330 859 -365T745
-413T604 -415T468 -367Z" />
<glyph unicode="&#xc8;" horiz-adv-x="1173" d="M184 0V1298H1018V1094H420V752H982V548H420V206H1018V0H184ZM737 1443L319 1780L477 1908L851 1535L737 1443Z" />
<glyph unicode="&#xc9;" horiz-adv-x="1173" d="M184 0V1298H1018V1094H420V752H982V548H420V206H1018V0H184ZM522 1440L409 1532L783 1905L941 1777L522 1440Z" />
<glyph unicode="&#xca;" horiz-adv-x="1173" d="M184 0V1298H1018V1094H420V752H982V548H420V206H1018V0H184ZM368 1427L229 1537L585 1842L942 1537L803 1427L543 1660H627L368 1427Z" />
<glyph unicode="&#xcb;" horiz-adv-x="1173" d="M184 0V1298H1018V1094H420V752H982V548H420V206H1018V0H184ZM777 1469Q719 1469 679 1506T638 1601Q638 1658 678 1696T777 1735Q839 1735 879 1697T919 1601Q919 1544 879 1507T777 1469ZM393 1469Q332 1469 293
1506T253 1599Q253 1657 292 1695T393 1733Q455 1733 495 1695T535 1599Q535 1544 495 1507T393 1469Z" />
<glyph unicode="&#xcc;" horiz-adv-x="609" d="M186 0V1298H422V0H186ZM455 1443L37 1780L195 1908L569 1535L455 1443Z" />
<glyph unicode="&#xcd;" horiz-adv-x="609" d="M186 0V1298H422V0H186ZM240 1440L127 1532L501 1905L659 1777L240 1440Z" />
<glyph unicode="&#xce;" horiz-adv-x="609" d="M186 0V1298H422V0H186ZM86 1427L-53 1537L303 1842L660 1537L521 1427L261 1660H345L86 1427Z" />
<glyph unicode="&#xcf;" horiz-adv-x="609" d="M186 0V1298H422V0H186ZM495 1469Q437 1469 397 1506T356 1601Q356 1658 396 1696T495 1735Q557 1735 597 1697T637 1601Q637 1544 597 1507T495 1469ZM111 1469Q50 1469 11 1506T-29 1599Q-29 1657 10 1695T111
1733Q173 1733 213 1695T253 1599Q253 1544 213 1507T111 1469Z" />
<glyph unicode="&#xd0;" horiz-adv-x="1373" d="M44 751H677V547H44V751ZM186 1298H606Q805 1298 953 1219T1185 994T1268 648Q1268 451 1185 306T954 80T606 0H186V1298ZM422 1084V212H606Q732 212 823 269T964 424T1014 648Q1014 776 965 873T824 1027T606 1084H422Z" />
<glyph unicode="&#xd1;" horiz-adv-x="1434" d="M182 1298H440L1030 372H1012V1298H1248V0H1008L380 982H418V0H182V1298ZM465 1449L371 1506Q395 1627 451 1694T585 1762Q614 1762 645 1751T731 1712Q782 1687 807 1676T857 1664Q886 1664 914 1687T963 1762L1063
1696Q1049 1624 1017 1569T945 1481T863 1449Q827 1449 792 1463T699 1505Q651 1532 629 1541T585 1550Q552 1550 523 1529T465 1449Z" />
<glyph unicode="&#xd2;" horiz-adv-x="1365" d="M682 -28Q509 -28 377 48T169 275T94 650Q94 878 169 1027T376 1250T682 1324Q856 1324 989 1249T1197 1023T1272 650Q1272 423 1197 273T989 47T682 -28ZM682 186Q841 186 934 306T1028 652Q1028 869 935 990T682
1112Q526 1112 432 991T338 650Q338 425 432 306T682 186ZM837 1443L419 1780L577 1908L951 1535L837 1443Z" />
<glyph unicode="&#xd3;" horiz-adv-x="1365" d="M682 -28Q509 -28 377 48T169 275T94 650Q94 878 169 1027T376 1250T682 1324Q856 1324 989 1249T1197 1023T1272 650Q1272 423 1197 273T989 47T682 -28ZM682 186Q841 186 934 306T1028 652Q1028 869 935 990T682
1112Q526 1112 432 991T338 650Q338 425 432 306T682 186ZM622 1440L509 1532L883 1905L1041 1777L622 1440Z" />
<glyph unicode="&#xd4;" horiz-adv-x="1365" d="M682 -28Q509 -28 377 48T169 275T94 650Q94 878 169 1027T376 1250T682 1324Q856 1324 989 1249T1197 1023T1272 650Q1272 423 1197 273T989 47T682 -28ZM682 186Q841 186 934 306T1028 652Q1028 869 935 990T682
1112Q526 1112 432 991T338 650Q338 425 432 306T682 186ZM469 1427L330 1537L686 1842L1043 1537L904 1427L644 1660H728L469 1427Z" />
<glyph unicode="&#xd5;" horiz-adv-x="1365" d="M682 -28Q509 -28 377 48T169 275T94 650Q94 878 169 1027T376 1250T682 1324Q856 1324 989 1249T1197 1023T1272 650Q1272 423 1197 273T989 47T682 -28ZM682 186Q841 186 934 306T1028 652Q1028 869 935 990T682
1112Q526 1112 432 991T338 650Q338 425 432 306T682 186ZM434 1449L340 1506Q364 1627 420 1694T554 1762Q583 1762 614 1751T700 1712Q751 1687 776 1676T826 1664Q855 1664 883 1687T932 1762L1032 1696Q1018 1624 986 1569T914 1481T832 1449Q796 1449 761
1463T668 1505Q620 1532 598 1541T554 1550Q521 1550 492 1529T434 1449Z" />
<glyph unicode="&#xd6;" horiz-adv-x="1365" d="M682 -28Q509 -28 377 48T169 275T94 650Q94 878 169 1027T376 1250T682 1324Q856 1324 989 1249T1197 1023T1272 650Q1272 423 1197 273T989 47T682 -28ZM682 186Q841 186 934 306T1028 652Q1028 869 935 990T682
1112Q526 1112 432 991T338 650Q338 425 432 306T682 186ZM877 1469Q819 1469 779 1506T738 1601Q738 1658 778 1696T877 1735Q939 1735 979 1697T1019 1601Q1019 1544 979 1507T877 1469ZM493 1469Q432 1469 393 1506T353 1599Q353 1657 392 1695T493 1733Q555
1733 595 1695T635 1599Q635 1544 595 1507T493 1469Z" />
<glyph unicode="&#xd7;" horiz-adv-x="1088" d="M284 90L118 258L378 518L118 776L284 944L544 684L804 944L972 776L710 518L972 258L804 90L544 350L284 90Z" />
<glyph unicode="&#xd8;" horiz-adv-x="1365" d="M60 0L1080 1299H1280L256 0H60ZM681 -28Q508 -28 376 48T169 275T94 650Q94 878 168 1027T375 1250T681 1324Q856 1324 988 1249T1196 1023T1271 650Q1271 423 1196 273T989 47T681 -28ZM681 186Q841 186 934 306T1027
652Q1027 869 934 990T681 1112Q525 1112 431 991T337 650Q337 425 431 306T681 186Z" />
<glyph unicode="&#xd9;" horiz-adv-x="1380" d="M166 1298H402V490Q402 330 483 259T692 188Q820 188 901 259T982 490V1298H1218V490Q1218 326 1155 210T975 33T692 -28Q527 -28 410 33T229 210T166 490V1298ZM841 1443L423 1780L581 1908L955 1535L841 1443Z" />
<glyph unicode="&#xda;" horiz-adv-x="1380" d="M166 1298H402V490Q402 330 483 259T692 188Q820 188 901 259T982 490V1298H1218V490Q1218 326 1155 210T975 33T692 -28Q527 -28 410 33T229 210T166 490V1298ZM625 1440L512 1532L886 1905L1044 1777L625 1440Z" />
<glyph unicode="&#xdb;" horiz-adv-x="1380" d="M166 1298H402V490Q402 330 483 259T692 188Q820 188 901 259T982 490V1298H1218V490Q1218 326 1155 210T975 33T692 -28Q527 -28 410 33T229 210T166 490V1298ZM472 1427L333 1537L689 1842L1046 1537L907 1427L647
1660H731L472 1427Z" />
<glyph unicode="&#xdc;" horiz-adv-x="1380" d="M166 1298H402V490Q402 330 483 259T692 188Q820 188 901 259T982 490V1298H1218V490Q1218 326 1155 210T975 33T692 -28Q527 -28 410 33T229 210T166 490V1298ZM881 1469Q823 1469 783 1506T742 1601Q742 1658
782 1696T881 1735Q943 1735 983 1697T1023 1601Q1023 1544 983 1507T881 1469ZM497 1469Q436 1469 397 1506T357 1599Q357 1657 396 1695T497 1733Q559 1733 599 1695T639 1599Q639 1544 599 1507T497 1469Z" />
<glyph unicode="&#xdd;" horiz-adv-x="1173" d="M14 1298H294L604 740H558L880 1298H1158L696 536V0H460V536L14 1298ZM522 1440L409 1532L783 1905L941 1777L522 1440Z" />
<glyph unicode="&#xde;" horiz-adv-x="1161" d="M180 0V1298H418V1035L365 1088H638Q857 1088 979 980T1102 674Q1102 478 980 370T638 262H365L418 315V0H180ZM418 415L365 468H638Q747 468 803 526T860 674Q860 766 804 825T638 884H365L418 938V415Z" />
<glyph unicode="&#xdf;" horiz-adv-x="1298" d="M641 1382Q766 1382 857 1344T997 1237T1046 1075Q1046 1003 1021 954T962 870T903 805T877 740Q877 702 909 673T990 614T1085 545T1165 450T1198 311Q1198 207 1144 132T1003 15T818 -26Q762 -26 693 -12T566
31L568 220Q628 180 680 162T785 143Q840 143 874 162T922 213T937 285Q937 349 908 393T835 472T748 538T675 608T645 701Q645 756 673 794T738 867T803 942T831 1039Q831 1113 776 1154T630 1195Q517 1195 471 1127T425 907V0H186V912Q186 1068 240 1172T397
1329T641 1382Z" />
<glyph unicode="&#xe0;" horiz-adv-x="1170" d="M804 0L774 236V626Q774 728 733 777T592 826Q535 826 494 810T429 761T406 684H148Q148 794 201 863T353 965T592 998Q718 998 812 958T958 833T1010 618V0H804ZM486 -28Q361 -28 278 15T152 130T110 284Q110 376
158 438T296 532T506 564Q585 564 655 552T796 520V382Q741 400 676 410T554 420Q470 420 416 389T362 284Q362 230 406 191T546 152Q619 152 670 184T747 264T774 360H830Q830 255 792 167T677 25T486 -28ZM735 1117L317 1454L475 1582L849 1209L735 1117Z" />
<glyph unicode="&#xe1;" horiz-adv-x="1170" d="M804 0L774 236V626Q774 728 733 777T592 826Q535 826 494 810T429 761T406 684H148Q148 794 201 863T353 965T592 998Q718 998 812 958T958 833T1010 618V0H804ZM486 -28Q361 -28 278 15T152 130T110 284Q110 376
158 438T296 532T506 564Q585 564 655 552T796 520V382Q741 400 676 410T554 420Q470 420 416 389T362 284Q362 230 406 191T546 152Q619 152 670 184T747 264T774 360H830Q830 255 792 167T677 25T486 -28ZM520 1114L407 1206L781 1579L939 1451L520 1114Z" />
<glyph unicode="&#xe2;" horiz-adv-x="1170" d="M804 0L774 236V626Q774 728 733 777T592 826Q535 826 494 810T429 761T406 684H148Q148 794 201 863T353 965T592 998Q718 998 812 958T958 833T1010 618V0H804ZM486 -28Q361 -28 278 15T152 130T110 284Q110 376
158 438T296 532T506 564Q585 564 655 552T796 520V382Q741 400 676 410T554 420Q470 420 416 389T362 284Q362 230 406 191T546 152Q619 152 670 184T747 264T774 360H830Q830 255 792 167T677 25T486 -28ZM367 1101L228 1211L584 1516L941 1211L802 1101L542
1334H626L367 1101Z" />
<glyph unicode="&#xe3;" horiz-adv-x="1170" d="M804 0L774 236V626Q774 728 733 777T592 826Q535 826 494 810T429 761T406 684H148Q148 794 201 863T353 965T592 998Q718 998 812 958T958 833T1010 618V0H804ZM486 -28Q361 -28 278 15T152 130T110 284Q110 376
158 438T296 532T506 564Q585 564 655 552T796 520V382Q741 400 676 410T554 420Q470 420 416 389T362 284Q362 230 406 191T546 152Q619 152 670 184T747 264T774 360H830Q830 255 792 167T677 25T486 -28ZM333 1123L239 1180Q263 1301 319 1368T453 1436Q482
1436 513 1425T599 1386Q650 1361 675 1350T725 1338Q754 1338 782 1361T831 1436L931 1370Q917 1298 885 1243T813 1155T731 1123Q695 1123 660 1137T567 1179Q519 1206 497 1215T453 1224Q420 1224 391 1203T333 1123Z" />
<glyph unicode="&#xe4;" horiz-adv-x="1170" d="M804 0L774 236V626Q774 728 733 777T592 826Q535 826 494 810T429 761T406 684H148Q148 794 201 863T353 965T592 998Q718 998 812 958T958 833T1010 618V0H804ZM486 -28Q361 -28 278 15T152 130T110 284Q110 376
158 438T296 532T506 564Q585 564 655 552T796 520V382Q741 400 676 410T554 420Q470 420 416 389T362 284Q362 230 406 191T546 152Q619 152 670 184T747 264T774 360H830Q830 255 792 167T677 25T486 -28ZM775 1143Q717 1143 677 1180T636 1275Q636 1332 676
1370T775 1409Q837 1409 877 1371T917 1275Q917 1218 877 1181T775 1143ZM391 1143Q330 1143 291 1180T251 1273Q251 1331 290 1369T391 1407Q453 1407 493 1369T533 1273Q533 1218 493 1181T391 1143Z" />
<glyph unicode="&#xe5;" horiz-adv-x="1170" d="M804 0L774 236V626Q774 728 733 777T592 826Q535 826 494 810T429 761T406 684H148Q148 794 201 863T353 965T592 998Q718 998 812 958T958 833T1010 618V0H804ZM486 -28Q361 -28 278 15T152 130T110 284Q110 376
158 438T296 532T506 564Q585 564 655 552T796 520V382Q741 400 676 410T554 420Q470 420 416 389T362 284Q362 230 406 191T546 152Q619 152 670 184T747 264T774 360H830Q830 255 792 167T677 25T486 -28ZM586 1077Q521 1077 467 1109T381 1196T348 1315Q348
1381 380 1434T467 1520T586 1553Q651 1553 705 1521T791 1435T824 1315Q824 1250 792 1196T705 1110T586 1077ZM586 1235Q620 1235 643 1258T666 1315Q666 1349 643 1372T586 1396Q553 1396 529 1373T505 1315Q505 1282 529 1259T586 1235Z" />
<glyph unicode="&#xe6;" horiz-adv-x="1724" d="M791 302H761V626Q761 725 717 775T581 826Q528 826 489 810T428 761T406 684H148Q148 794 200 863T341 965T536 998Q671 998 760 949T894 807T938 584V445L791 302ZM480 -28Q361 -28 279 14T153 127T110 284Q110
376 157 438T291 532T492 564Q566 564 640 552T783 520V382Q728 400 660 410T544 420Q466 420 414 389T362 288Q362 231 403 192T526 152Q600 152 652 183T733 261T761 360H913Q913 266 864 177T719 30T480 -28ZM1224 -28Q1091 -28 987 40T824 225T764 489Q764
637 823 751T985 932T1219 998Q1330 998 1413 951T1548 825T1618 646T1620 440H946V568H1453L1407 538Q1410 585 1403 633T1374 721T1314 785T1215 810Q1144 810 1094 774T1018 676T992 536V442Q992 360 1016 297T1089 198T1213 162Q1279 162 1326 193T1387 290H1625Q1611
196 1554 125T1412 13T1224 -28Z" />
<glyph unicode="&#xe7;" horiz-adv-x="1059" d="M554 -28Q432 -28 328 35T159 214T94 486Q94 651 158 765T327 938T554 998Q649 998 722 968T845 886T925 772T962 644L724 638Q708 701 665 743T552 786Q496 786 446 755T364 658T332 486Q332 386 361 319T441 219T552
186Q642 186 683 229T724 346H962Q962 243 915 158T778 23T554 -28ZM350 -365L383 -282Q451 -315 503 -319T587 -306T622 -256Q624 -228 602 -207T539 -168T443 -139L521 81L625 66L554 -133L523 -73Q620 -88 680 -118T766 -187T790 -270Q786 -328 741 -363T627
-411T486 -413T350 -365Z" />
<glyph unicode="&#xe8;" horiz-adv-x="1060" d="M548 -28Q424 -28 321 36T156 216T94 486Q94 646 155 761T320 937T548 998Q664 998 748 952T885 826T955 646T956 440H282V568H789L743 538Q746 585 739 633T710 721T651 785T552 810Q480 810 430 774T354 676T328
536V442Q328 360 352 297T426 198T548 162Q617 162 664 194T724 290H962Q947 196 892 125T749 13T548 -28ZM681 1117L263 1454L421 1582L795 1209L681 1117Z" />
<glyph unicode="&#xe9;" horiz-adv-x="1060" d="M548 -28Q424 -28 321 36T156 216T94 486Q94 646 155 761T320 937T548 998Q664 998 748 952T885 826T955 646T956 440H282V568H789L743 538Q746 585 739 633T710 721T651 785T552 810Q480 810 430 774T354 676T328
536V442Q328 360 352 297T426 198T548 162Q617 162 664 194T724 290H962Q947 196 892 125T749 13T548 -28ZM466 1114L353 1206L727 1579L885 1451L466 1114Z" />
<glyph unicode="&#xea;" horiz-adv-x="1060" d="M548 -28Q424 -28 321 36T156 216T94 486Q94 646 155 761T320 937T548 998Q664 998 748 952T885 826T955 646T956 440H282V568H789L743 538Q746 585 739 633T710 721T651 785T552 810Q480 810 430 774T354 676T328
536V442Q328 360 352 297T426 198T548 162Q617 162 664 194T724 290H962Q947 196 892 125T749 13T548 -28ZM313 1357L174 1467L530 1772L887 1467L748 1357L488 1590H572L313 1357Z" />
<glyph unicode="&#xeb;" horiz-adv-x="1060" d="M548 -28Q424 -28 321 36T156 216T94 486Q94 646 155 761T320 937T548 998Q664 998 748 952T885 826T955 646T956 440H282V568H789L743 538Q746 585 739 633T710 721T651 785T552 810Q480 810 430 774T354 676T328
536V442Q328 360 352 297T426 198T548 162Q617 162 664 194T724 290H962Q947 196 892 125T749 13T548 -28ZM721 1143Q663 1143 623 1180T582 1275Q582 1332 622 1370T721 1409Q783 1409 823 1371T863 1275Q863 1218 823 1181T721 1143ZM337 1143Q276 1143 237 1180T197
1273Q197 1331 236 1369T337 1407Q399 1407 439 1369T479 1273Q479 1218 439 1181T337 1143Z" />
<glyph unicode="&#xec;" horiz-adv-x="656" d="M206 0V974H442V0H206ZM730 1117L312 1454L470 1582L844 1209L730 1117Z" />
<glyph unicode="&#xed;" horiz-adv-x="656" d="M206 0V974H442V0H206ZM259 1370L146 1462L520 1835L678 1707L259 1370Z" />
<glyph unicode="&#xee;" horiz-adv-x="656" d="M206 0V974H442V0H206ZM362 1357L223 1467L579 1772L936 1467L797 1357L537 1590H621L362 1357Z" />
<glyph unicode="&#xef;" horiz-adv-x="656" d="M206 0V974H442V0H206ZM770 1143Q712 1143 672 1180T631 1275Q631 1332 671 1370T770 1409Q832 1409 872 1371T912 1275Q912 1218 872 1181T770 1143ZM386 1143Q325 1143 286 1180T246 1273Q246 1331 285 1369T386
1407Q448 1407 488 1369T528 1273Q528 1218 488 1181T386 1143Z" />
<glyph unicode="&#xf0;" horiz-adv-x="1134" d="M551 -28Q429 -28 327 36T164 218T102 492Q102 645 159 758T313 935T522 998Q638 998 723 934T854 761T901 515H827Q825 608 788 667T696 756T580 786Q510 786 456 749T371 646T340 488Q340 398 371 330T456 224T582
186Q658 186 711 228T792 340T825 495Q830 647 813 784T747 1049T605 1294T368 1524L567 1656Q698 1538 790 1410T941 1151T1027 890T1054 641Q1054 479 1013 355T900 145T739 16T551 -28ZM419 1112L352 1255L974 1566L1041 1423L419 1112Z" />
<glyph unicode="&#xf1;" horiz-adv-x="1246" d="M852 0V568Q852 676 800 731T664 786Q593 786 539 747T453 629T422 434H344Q344 623 391 748T524 936T726 998Q846 998 926 944T1047 794T1088 568V0H852ZM186 0V970H392L422 778V0H186ZM385 1130L291 1187Q315
1308 371 1375T505 1443Q534 1443 565 1432T651 1393Q702 1368 727 1357T777 1345Q806 1345 834 1368T883 1443L983 1377Q969 1305 937 1250T865 1162T783 1130Q747 1130 712 1144T619 1186Q571 1213 549 1222T505 1231Q472 1231 443 1210T385 1130Z" />
<glyph unicode="&#xf2;" horiz-adv-x="1132" d="M568 -28Q435 -28 328 29T157 199T94 484Q94 658 157 772T327 942T568 998Q699 998 805 942T975 772T1038 484Q1038 313 975 200T806 29T568 -28ZM560 178Q631 178 685 212T770 315T802 484Q802 638 742 716T576
794Q505 794 450 760T364 656T332 484Q332 332 393 255T560 178ZM717 1117L299 1454L457 1582L831 1209L717 1117Z" />
<glyph unicode="&#xf3;" horiz-adv-x="1132" d="M568 -28Q435 -28 328 29T157 199T94 484Q94 658 157 772T327 942T568 998Q699 998 805 942T975 772T1038 484Q1038 313 975 200T806 29T568 -28ZM560 178Q631 178 685 212T770 315T802 484Q802 638 742 716T576
794Q505 794 450 760T364 656T332 484Q332 332 393 255T560 178ZM502 1114L389 1206L763 1579L921 1451L502 1114Z" />
<glyph unicode="&#xf4;" horiz-adv-x="1132" d="M568 -28Q435 -28 328 29T157 199T94 484Q94 658 157 772T327 942T568 998Q699 998 805 942T975 772T1038 484Q1038 313 975 200T806 29T568 -28ZM560 178Q631 178 685 212T770 315T802 484Q802 638 742 716T576
794Q505 794 450 760T364 656T332 484Q332 332 393 255T560 178ZM349 1357L210 1467L566 1772L923 1467L784 1357L524 1590H608L349 1357Z" />
<glyph unicode="&#xf5;" horiz-adv-x="1132" d="M568 -28Q435 -28 328 29T157 199T94 484Q94 658 157 772T327 942T568 998Q699 998 805 942T975 772T1038 484Q1038 313 975 200T806 29T568 -28ZM560 178Q631 178 685 212T770 315T802 484Q802 638 742 716T576
794Q505 794 450 760T364 656T332 484Q332 332 393 255T560 178ZM314 1123L220 1180Q244 1301 300 1368T434 1436Q463 1436 494 1425T580 1386Q631 1361 656 1350T706 1338Q735 1338 763 1361T812 1436L912 1370Q898 1298 866 1243T794 1155T712 1123Q676 1123
641 1137T548 1179Q500 1206 478 1215T434 1224Q401 1224 372 1203T314 1123Z" />
<glyph unicode="&#xf6;" horiz-adv-x="1132" d="M568 -28Q435 -28 328 29T157 199T94 484Q94 658 157 772T327 942T568 998Q699 998 805 942T975 772T1038 484Q1038 313 975 200T806 29T568 -28ZM560 178Q631 178 685 212T770 315T802 484Q802 638 742 716T576
794Q505 794 450 760T364 656T332 484Q332 332 393 255T560 178ZM757 1143Q699 1143 659 1180T618 1275Q618 1332 658 1370T757 1409Q819 1409 859 1371T899 1275Q899 1218 859 1181T757 1143ZM373 1143Q312 1143 273 1180T233 1273Q233 1331 272 1369T373 1407Q435
1407 475 1369T515 1273Q515 1218 475 1181T373 1143Z" />
<glyph unicode="&#xf7;" horiz-adv-x="1041" d="M132 444V652H908V444H132ZM518 78Q460 78 421 115T382 208Q382 264 421 301T518 338Q578 338 618 301T658 208Q658 153 618 116T518 78ZM518 752Q460 752 421 788T382 882Q382 936 421 974T518 1012Q578 1012 618
974T658 882Q658 825 618 789T518 752Z" />
<glyph unicode="&#xf8;" horiz-adv-x="1132" d="M568 -28Q435 -28 328 29T157 199T94 484Q94 658 157 772T327 942T568 998Q699 998 805 942T975 772T1038 484Q1038 313 975 200T806 29T568 -28ZM560 178Q631 178 685 212T770 315T802 484Q802 638 742 716T576
794Q505 794 450 760T364 656T332 484Q332 332 393 255T560 178ZM120 -2L951 991H1205L370 -2H120Z" />
<glyph unicode="&#xf9;" horiz-adv-x="1254" d="M832 974H1068V0H832V974ZM166 974H402V378Q402 284 449 236T578 188Q648 188 705 224T797 332T832 510H896Q896 332 850 215T723 40T536 -18Q433 -18 349 19T216 137T166 354V974ZM793 1117L375 1454L533 1582L907
1209L793 1117Z" />
<glyph unicode="&#xfa;" horiz-adv-x="1254" d="M832 974H1068V0H832V974ZM166 974H402V378Q402 284 449 236T578 188Q648 188 705 224T797 332T832 510H896Q896 332 850 215T723 40T536 -18Q433 -18 349 19T216 137T166 354V974ZM578 1114L465 1206L839 1579L997
1451L578 1114Z" />
<glyph unicode="&#xfb;" horiz-adv-x="1254" d="M832 974H1068V0H832V974ZM166 974H402V378Q402 284 449 236T578 188Q648 188 705 224T797 332T832 510H896Q896 332 850 215T723 40T536 -18Q433 -18 349 19T216 137T166 354V974ZM425 1101L286 1211L642 1516L999
1211L860 1101L600 1334H684L425 1101Z" />
<glyph unicode="&#xfc;" horiz-adv-x="1254" d="M832 974H1068V0H832V974ZM166 974H402V378Q402 284 449 236T578 188Q648 188 705 224T797 332T832 510H896Q896 332 850 215T723 40T536 -18Q433 -18 349 19T216 137T166 354V974ZM834 1143Q776 1143 736 1180T695
1275Q695 1332 735 1370T834 1409Q896 1409 936 1371T976 1275Q976 1218 936 1181T834 1143ZM450 1143Q389 1143 350 1180T310 1273Q310 1331 349 1369T450 1407Q512 1407 552 1369T592 1273Q592 1218 552 1181T450 1143Z" />
<glyph unicode="&#xfd;" horiz-adv-x="1007" d="M38 970H306L564 206H522L744 970H984L612 -176Q555 -348 472 -425T268 -502Q199 -502 134 -487T0 -438V-230Q55 -264 106 -280T210 -296Q258 -296 293 -271T354 -200T398 -94L428 0L38 970ZM439 1114L326 1206L700
1579L858 1451L439 1114Z" />
<glyph unicode="&#xfe;" horiz-adv-x="1200" d="M672 -28Q565 -28 490 18T376 157T336 392H422Q422 327 452 281T532 211T638 186Q697 186 754 218T850 317T888 486Q888 579 856 646T769 749T642 786Q582 786 532 759T452 681T422 556H336Q336 709 383 806T510
951T682 998Q797 998 898 937T1063 762T1126 486Q1126 324 1062 209T895 33T672 -28ZM186 -474V1298H422V-474H186Z" />
<glyph unicode="&#xff;" horiz-adv-x="1007" d="M38 970H306L564 206H522L744 970H984L612 -176Q555 -348 472 -425T268 -502Q199 -502 134 -487T0 -438V-230Q55 -264 106 -280T210 -296Q258 -296 293 -271T354 -200T398 -94L428 0L38 970ZM695 1143Q637 1143
597 1180T556 1275Q556 1332 596 1370T695 1409Q757 1409 797 1371T837 1275Q837 1218 797 1181T695 1143ZM311 1143Q250 1143 211 1180T171 1273Q171 1331 210 1369T311 1407Q373 1407 413 1369T453 1273Q453 1218 413 1181T311 1143Z" />
<glyph unicode="&#x2013;" horiz-adv-x="1050" d="M110 500V706H940V500H110Z" />
<glyph unicode="&#x2014;" horiz-adv-x="1536" d="M110 500V706H1428V500H110Z" />
<glyph unicode="&#x2018;" horiz-adv-x="542" d="M262 758Q175 758 124 821T72 974Q72 1037 102 1099T186 1215T310 1304L474 1212Q408 1181 358 1138T288 1038Q345 1029 384 995T424 904Q424 843 379 801T262 758Z" />
<glyph unicode="&#x2019;" horiz-adv-x="542" d="M222 758L58 850Q124 882 175 925T244 1024Q185 1033 147 1068T108 1160Q108 1222 154 1263T272 1304Q358 1304 408 1241T458 1088Q458 1024 428 963T345 849T222 758Z" />
<glyph unicode="&#x201a;" horiz-adv-x="1200" d="M230 -284L41 -192Q114 -156 169 -109T244 -2Q182 10 140 48T98 148Q98 213 146 257T272 302Q366 302 421 235T476 72Q476 5 447 -63T362 -189T230 -284Z" />
<glyph unicode="&#x201c;" horiz-adv-x="1200" d="M262 758Q175 758 124 821T72 974Q72 1037 102 1099T186 1215T310 1304L474 1212Q408 1181 358 1138T288 1038Q345 1029 384 995T424 904Q424 843 379 801T262 758ZM262 758Q175 758 124 821T72 974Q72 1037 102
1099T186 1215T310 1304L474 1212Q408 1181 358 1138T288 1038Q345 1029 384 995T424 904Q424 843 379 801T262 758Z" />
<glyph unicode="&#x201d;" horiz-adv-x="1200" d="M222 758L58 850Q124 882 175 925T244 1024Q185 1033 147 1068T108 1160Q108 1222 154 1263T272 1304Q358 1304 408 1241T458 1088Q458 1024 428 963T345 849T222 758ZM222 758L58 850Q124 882 175 925T244 1024Q185
1033 147 1068T108 1160Q108 1222 154 1263T272 1304Q358 1304 408 1241T458 1088Q458 1024 428 963T345 849T222 758Z" />
<glyph unicode="&#x201e;" horiz-adv-x="1200" d="M230 -284L41 -192Q114 -156 169 -109T244 -2Q182 10 140 48T98 148Q98 213 146 257T272 302Q366 302 421 235T476 72Q476 5 447 -63T362 -189T230 -284ZM230 -284L41 -192Q114 -156 169 -109T244 -2Q182 10 140
48T98 148Q98 213 146 257T272 302Q366 302 421 235T476 72Q476 5 447 -63T362 -189T230 -284Z" />
<glyph unicode="&#x2022;" horiz-adv-x="718" d="M90 558Q90 630 124 689T218 782T355 817Q433 817 494 783T591 690T627 558Q627 485 592 428T495 338T355 305Q278 305 219 338T125 428T90 558Z" />
<glyph unicode="&#x2039;" horiz-adv-x="761" d="M315 509L666 851L508 971L94 540L508 108L666 228L315 571V509Z" />
<glyph unicode="&#x203a;" horiz-adv-x="761" d="M253 108L94 228L446 571V509L94 851L253 971L666 540L253 108Z" />
</font>
</defs>
</svg>
