<?xml version="1.0" encoding="UTF-8"?>
<svg xmlns="http://www.w3.org/2000/svg" version="1.1" viewBox="0 0 158 141.6">
  <defs>
    <style>
      .cls-1 {
        fill: #fff;
      }

      .cls-1, .cls-2 {
        stroke-width: 0px;
      }

      .cls-2 {
        fill: #6db33f;
      }
    </style>
  </defs>
  <g id="Layer_1" data-name="Layer 1" focusable="false">
    <g>
      <path class="cls-2" d="M153.4,62.6l-30.2-52.3c-2.6-4.5-9.1-8.3-14.3-8.3h-60.4c-5.2,0-11.7,3.7-14.3,8.3L4,62.6c-2.6,4.5-2.6,12,0,16.5l30.2,52.3c2.6,4.5,9.1,8.3,14.3,8.3h60.4c5.2,0,11.7-3.7,14.3-8.3l30.2-52.3c2.7-4.6,2.7-12,0-16.5Z"/>
      <circle class="cls-1" cx="36.7" cy="115.2" r="6.1"/>
      <g>
        <path class="cls-1" d="M139,97.4c-17.7,23.6-55.5,15.6-79.7,16.8,0,0-4.3.2-8.6.9,0,0,1.6-.7,3.7-1.4,17-5.9,25-7.1,35.4-12.4,19.4-9.9,38.7-31.6,42.7-54.1-7.4,21.6-29.9,40.3-50.3,47.8-14,5.2-39.3,10.2-39.3,10.2l-1-.5c-17.4-8.3-17.9-45.7,13.4-57.7,13.7-5.3,26.9-2.4,41.7-5.9,15.8-3.8,34.1-15.6,41.6-31.1,8.3,24.8,18.3,63.5.4,87.4Z"/>
        <path class="cls-2" d="M138.6,10c8.3,24.8,18.4,63.5.4,87.4-11.1,14.8-30.1,17.2-48.7,17.2s-17.5-.5-25.2-.5-3.9,0-5.7,0c0,0-4.3.2-8.6.9,0,0,1.6-.7,3.7-1.4,17-5.9,25-7.1,35.4-12.4,19.4-9.9,38.7-31.6,42.7-54.1-7.4,21.6-29.9,40.3-50.3,47.8-14,5.2-39.3,10.2-39.3,10.2h0l-1-.5c-17.5-8.3-18-45.7,13.3-57.7,13.7-5.3,26.9-2.4,41.7-5.9,15.8-3.7,34.1-15.6,41.6-31.1M139.1,2.1l-3.2,6.6c-7.5,15.6-25.8,26.2-39.6,29.5-6.2,1.5-12.3,1.8-18.1,2.1-7.7.4-15.7.8-23.9,3.9-19.3,7.4-26.7,23.6-27.2,36.3-.5,12.1,4.7,22.6,13.2,26.9.5.3,1.6.9,2.5.9h1.3l.2-.2c5.8-1.2,26.5-5.6,38.9-10.1,8.6-3.2,18.3-8.6,27.1-15.8-6.5,6.9-14.1,12.7-21.8,16.6-6.3,3.2-11.7,4.9-19.2,7.2-4.4,1.3-9.5,2.9-15.7,5-2.2.7-3.8,1.5-3.9,1.5l-2.2,4.5,3.9,1.2c4.1-.7,8.2-.9,8.3-.9,1.7,0,3.5,0,5.5,0,3.7,0,7.6,0,11.7.3,4.4,0,8.9.3,13.5.3,18.5,0,39-2.2,51.1-18.4,14.1-18.8,14.2-48.3.1-90.2l-2.5-7.1h0Z"/>
      </g>
    </g>
  </g>
</svg>